<svg xmlns="http://www.w3.org/2000/svg" width="101" height="101" viewBox="0 0 101 101" fill="none">
<path d="M89.4395 66.87C86.7622 73.2014 82.5748 78.7805 77.2432 83.1197C71.9117 87.4588 65.5983 90.4258 58.8552 91.7614C52.112 93.0969 45.1443 92.7603 38.5613 90.7809C31.9784 88.8015 25.9804 85.2397 21.092 80.4068C16.2036 75.5739 12.5735 69.617 10.5191 63.0571C8.46465 56.4971 8.04847 49.5337 9.30692 42.7758C10.5654 36.0178 13.4601 29.671 17.7381 24.2902C22.0161 18.9095 27.547 14.6586 33.8474 11.9092" fill="#A36BFD"/>
<path d="M89.4395 66.87C86.7622 73.2014 82.5748 78.7805 77.2432 83.1197C71.9117 87.4588 65.5983 90.4259 58.8552 91.7614C52.112 93.0969 45.1443 92.7603 38.5614 90.7809C31.9784 88.8015 25.9804 85.2397 21.092 80.4068C16.2036 75.5739 12.5735 69.617 10.5191 63.0571C8.46465 56.4971 8.04847 49.5337 9.30692 42.7758C10.5654 36.0178 13.4601 29.671 17.7381 24.2902C22.0161 18.9095 27.547 14.6586 33.8474 11.9092" stroke="white" stroke-linecap="round" stroke-linejoin="round"/>
<path d="M92.5833 50.4998C92.5833 44.9734 91.4948 39.501 89.3799 34.3952C87.265 29.2895 84.1652 24.6502 80.2574 20.7424C76.3496 16.8346 71.7104 13.7348 66.6046 11.6199C61.4988 9.50502 56.0265 8.4165 50.5 8.4165V50.4998H92.5833Z" fill="#60CDAC" stroke="white" stroke-linecap="round" stroke-linejoin="round"/>
</svg>