<svg xmlns="http://www.w3.org/2000/svg" width="727" height="479" viewBox="0 0 727 479" fill="none">
    <g clip-path="url(#clip0_187_6065)">
        <path fill-rule="evenodd" clip-rule="evenodd" d="M36.0161 388.241C36.0161 388.241 -8.37456 399.151 2.53508 441.796C8.23595 464.081 49.9897 469.234 108.521 469.234C109.895 469.234 111.251 469.224 112.616 469.215C113.869 469.634 115.132 470.043 116.413 470.424C185.204 490.821 279.12 470.461 364.057 444.856C430.555 424.812 581.117 428.412 628.108 428.412C790.629 428.412 703.24 388.241 703.24 388.241H36.0161Z" fill="url(#paint0_linear_187_6065)"/>
        <path opacity="0.5" d="M681.718 417.055H278.554V387.376H652.091L681.718 417.055Z" fill="#000640"/>
        <path opacity="0.5" fill-rule="evenodd" clip-rule="evenodd" d="M351.672 450.083C351.672 459.021 286.075 466.276 205.158 466.276C124.241 466.276 58.6436 459.031 58.6436 450.083C58.6436 441.145 124.241 433.89 205.158 433.89C286.084 433.899 351.672 441.145 351.672 450.083Z" fill="#000640"/>
        <path d="M26.685 390.51H715.812C715.812 390.51 739.674 227.808 633.772 127.358C527.869 26.9075 374.234 104.719 374.234 104.719C374.234 104.719 288.656 -43.1754 162.42 12.7607C-41.9297 103.306 26.685 390.51 26.685 390.51Z" fill="url(#paint1_linear_187_6065)"/>
        <path opacity="0.8" d="M144.388 48.4488C144.305 48.4488 144.221 48.4395 144.137 48.4395C131.232 48.4395 120.768 58.9216 120.768 71.85C120.768 84.7783 131.232 95.2605 144.137 95.2605C157.043 95.2605 167.507 84.7783 167.507 71.85H144.388V48.4488Z" fill="url(#paint2_linear_187_6065)"/>
        <path d="M83.7119 176.253H91.3719V245.527H83.7119V176.253Z" fill="url(#paint3_linear_187_6065)"/>
        <path d="M98.4932 199.785H106.153V245.536H98.4932V199.785Z" fill="url(#paint4_linear_187_6065)"/>
        <path d="M113.284 184.866H120.944V245.881H113.284V184.866Z" fill="url(#paint5_linear_187_6065)"/>
        <path d="M128.075 178.932H135.735V245.536H128.075V178.932Z" fill="url(#paint6_linear_187_6065)"/>
        <path d="M142.856 201.199H150.516V245.536H142.856V201.199Z" fill="url(#paint7_linear_187_6065)"/>
        <path d="M157.647 209.895H165.307V245.536H157.647V209.895Z" fill="url(#paint8_linear_187_6065)"/>
        <path d="M172.438 183.369H180.097V245.536H172.438V183.369Z" fill="url(#paint9_linear_187_6065)"/>
        <path d="M187.219 194.576H194.879V245.536H187.219V194.576Z" fill="url(#paint10_linear_187_6065)"/>
        <path d="M202.01 185.619H209.67V245.536H202.01V185.619Z" fill="url(#paint11_linear_187_6065)"/>
        <path d="M216.801 204.714H224.461V245.536H216.801V204.714Z" fill="url(#paint12_linear_187_6065)"/>
        <path d="M231.591 196.948H239.251V245.536H231.591V196.948Z" fill="url(#paint13_linear_187_6065)"/>
        <path d="M234.507 191.963C234.507 191.972 234.349 191.953 234.042 191.907C233.708 191.851 233.262 191.786 232.705 191.693C232.12 191.581 231.387 191.488 230.523 191.404C230.087 191.358 229.623 191.311 229.121 191.256C228.62 191.237 228.091 191.209 227.524 191.181C225.268 191.079 222.492 191.144 219.317 191.628C216.151 192.093 212.576 192.967 208.834 194.483C205.102 195.999 201.183 198.138 197.535 201.17C193.83 204.147 190.599 208.1 187.414 212.406C184.202 216.675 180.924 221.363 176.365 225.139C174.109 227.027 171.546 228.664 168.696 229.78C165.845 230.878 162.67 231.352 159.55 230.906C156.412 230.524 153.506 229.232 150.925 227.632C148.362 225.976 146.087 223.995 144.082 221.847C140.034 217.559 137.1 212.685 133.999 208.332C130.935 203.961 127.704 199.971 123.925 197.097C122.058 195.636 120.025 194.585 118.01 193.73C115.977 192.911 113.916 192.409 111.938 192.093C107.955 191.497 104.259 191.842 101.149 192.558C98.0293 193.283 95.4852 194.427 93.5169 195.515C91.5856 196.687 90.1836 197.757 89.3016 198.548C88.8838 198.929 88.5495 199.236 88.2988 199.459C88.0667 199.664 87.946 199.766 87.9367 199.757C87.9274 199.747 88.0388 199.636 88.2524 199.413C88.4938 199.171 88.8095 198.855 89.218 198.455C90.0815 197.627 91.4649 196.52 93.3962 195.302C95.3645 194.167 97.9179 192.976 101.075 192.204C104.213 191.451 107.955 191.06 112.012 191.637C114.027 191.944 116.125 192.437 118.205 193.265C120.257 194.12 122.355 195.199 124.259 196.669C128.121 199.571 131.399 203.598 134.491 207.979C137.61 212.35 140.554 217.187 144.546 221.4C146.524 223.521 148.771 225.455 151.268 227.074C153.794 228.636 156.607 229.892 159.634 230.255C162.642 230.682 165.697 230.227 168.464 229.166C171.231 228.087 173.738 226.488 175.957 224.637C180.432 220.935 183.7 216.294 186.931 212.025C188.547 209.885 190.144 207.802 191.834 205.886C192.688 204.937 193.523 203.998 194.443 203.161L195.789 201.896C196.244 201.496 196.717 201.124 197.182 200.733C200.896 197.683 204.87 195.534 208.648 194.037C212.437 192.53 216.048 191.683 219.252 191.246C222.455 190.8 225.25 190.763 227.515 190.902C228.081 190.939 228.62 190.967 229.121 191.005C229.623 191.07 230.087 191.125 230.523 191.181C231.396 191.284 232.12 191.395 232.705 191.525C233.262 191.646 233.708 191.73 234.033 191.804C234.358 191.916 234.507 191.953 234.507 191.963ZM75.2722 250.363C75.0958 250.363 74.9473 230.608 74.9473 206.249C74.9473 181.88 75.0865 162.125 75.2722 162.125C75.4486 162.125 75.5972 181.871 75.5972 206.249C75.5972 230.608 75.4579 250.363 75.2722 250.363ZM242.371 250.363C242.371 250.54 206.039 250.689 161.231 250.689C116.404 250.689 80.0818 250.549 80.0818 250.363C80.0818 250.187 116.404 250.038 161.231 250.038C206.039 250.038 242.371 250.187 242.371 250.363ZM94.631 255.814C94.631 255.99 92.087 256.139 88.9487 256.139C85.8105 256.139 83.2664 255.99 83.2664 255.814C83.2664 255.637 85.8105 255.488 88.9487 255.488C92.087 255.488 94.631 255.637 94.631 255.814ZM113.488 256.093C113.488 256.269 110.443 256.418 106.692 256.418C102.941 256.418 99.8955 256.269 99.8955 256.093C99.8955 255.916 102.941 255.767 106.692 255.767C110.443 255.767 113.488 255.916 113.488 256.093ZM129.57 256.093C129.57 256.269 126.524 256.418 122.773 256.418C119.022 256.418 115.977 256.269 115.977 256.093C115.977 255.916 119.022 255.767 122.773 255.767C126.534 255.767 129.57 255.916 129.57 256.093ZM145.651 256.093C145.651 256.269 142.606 256.418 138.855 256.418C135.104 256.418 132.058 256.269 132.058 256.093C132.058 255.916 135.094 255.767 138.855 255.767C142.615 255.767 145.651 255.916 145.651 256.093ZM161.742 256.093C161.742 256.269 158.696 256.418 154.945 256.418C151.194 256.418 148.149 256.269 148.149 256.093C148.149 255.916 151.194 255.767 154.945 255.767C158.696 255.767 161.742 255.916 161.742 256.093ZM177.823 256.093C177.823 256.269 174.777 256.418 171.026 256.418C167.275 256.418 164.23 256.269 164.23 256.093C164.23 255.916 167.275 255.767 171.026 255.767C174.777 255.767 177.823 255.916 177.823 256.093ZM193.904 256.093C193.904 256.269 190.859 256.418 187.108 256.418C183.357 256.418 180.311 256.269 180.311 256.093C180.311 255.916 183.357 255.767 187.108 255.767C190.859 255.767 193.904 255.916 193.904 256.093ZM209.985 256.093C209.985 256.269 206.94 256.418 203.189 256.418C199.438 256.418 196.392 256.269 196.392 256.093C196.392 255.916 199.438 255.767 203.189 255.767C206.94 255.767 209.985 255.916 209.985 256.093ZM226.067 256.093C226.067 256.269 223.021 256.418 219.27 256.418C215.519 256.418 212.474 256.269 212.474 256.093C212.474 255.916 215.519 255.767 219.27 255.767C223.031 255.767 226.067 255.916 226.067 256.093ZM242.148 256.093C242.148 256.269 239.103 256.418 235.352 256.418C231.6 256.418 228.555 256.269 228.555 256.093C228.555 255.916 231.6 255.767 235.352 255.767C239.112 255.767 242.148 255.916 242.148 256.093Z" fill="white"/>
        <path d="M136.06 209.16C136.041 209.076 136.719 209.179 136.979 210.053C137.09 210.462 137.09 211.039 136.673 211.541C136.264 212.053 135.447 212.164 134.834 211.867C134.212 211.597 133.748 210.918 133.859 210.267C133.952 209.634 134.389 209.244 134.769 209.058C135.596 208.667 136.125 209.104 136.051 209.151C136.023 209.244 135.549 209.067 135.001 209.448C134.741 209.634 134.481 209.96 134.454 210.332C134.416 210.695 134.676 211.085 135.104 211.281C135.531 211.467 135.995 211.411 136.246 211.141C136.506 210.881 136.58 210.462 136.543 210.146C136.459 209.486 136.004 209.253 136.06 209.16ZM210.088 192.437C210.088 192.4 210.236 192.344 210.524 192.39C210.803 192.437 211.202 192.623 211.527 193.032C211.852 193.423 212.093 194.13 211.796 194.837C211.508 195.516 210.784 196.046 209.92 196.046C209.02 196.046 208.361 195.32 208.175 194.66C207.952 193.972 208.166 193.255 208.537 192.883C209.298 192.121 210.013 192.242 209.995 192.297C210.032 192.4 209.391 192.493 208.89 193.172C208.648 193.497 208.556 193.981 208.732 194.474C208.908 194.957 209.363 195.404 209.93 195.404C210.496 195.413 211.044 195.032 211.257 194.595C211.48 194.148 211.369 193.646 211.155 193.302C210.719 192.576 210.069 192.539 210.088 192.437Z" fill="white"/>
        <path d="M211.295 160.097C211.118 160.097 210.97 159.679 210.97 159.167C210.97 158.656 211.118 158.237 211.295 158.237C211.471 158.237 211.62 158.656 211.62 159.167C211.61 159.679 211.471 160.097 211.295 160.097ZM211.295 168.152C211.118 168.152 210.97 167.25 210.97 166.134C210.97 165.018 211.118 164.116 211.295 164.116C211.471 164.116 211.62 165.018 211.62 166.134C211.61 167.25 211.471 168.152 211.295 168.152ZM211.295 176.216C211.118 176.216 210.97 175.314 210.97 174.198C210.97 173.082 211.118 172.179 211.295 172.179C211.471 172.179 211.62 173.082 211.62 174.198C211.61 175.314 211.471 176.216 211.295 176.216ZM211.295 184.28C211.118 184.28 210.97 183.378 210.97 182.262C210.97 181.146 211.118 180.243 211.295 180.243C211.471 180.243 211.62 181.146 211.62 182.262C211.61 183.378 211.471 184.28 211.295 184.28ZM211.295 190.168C211.118 190.168 210.97 189.749 210.97 189.237C210.97 188.726 211.118 188.307 211.295 188.307C211.471 188.307 211.62 188.726 211.62 189.237C211.61 189.749 211.471 190.168 211.295 190.168Z" fill="white"/>
        <path d="M264.776 380.456C264.776 380.456 255.305 393.319 223.152 392.547C199.717 391.989 176.486 374.215 176.486 374.215C176.486 374.215 216.253 347.819 264.776 380.456Z" fill="#00759F"/>
        <path d="M264.274 381.805C264.274 381.805 244.878 383.897 219.001 354.274C200.144 332.677 196.903 297.054 196.903 297.054C196.903 297.054 253.503 311.08 264.274 381.805Z" fill="#005CB4"/>
        <path d="M263.401 381.274C263.401 381.274 245.723 373.015 238.889 334.249C233.903 305.992 249.548 273.83 249.548 273.83C249.548 273.83 290.708 315.172 263.401 381.274Z" fill="#741AAC"/>
        <path d="M613.058 388.25C613.058 388.25 622.472 401.039 654.421 400.267C677.708 399.709 700.79 382.046 700.79 382.046C700.79 382.046 661.274 355.818 613.058 388.25Z" fill="#00759F"/>
        <path d="M613.55 389.589C613.55 389.589 632.816 391.673 658.535 362.226C677.281 340.769 680.493 305.36 680.493 305.36C680.493 305.36 624.255 319.311 613.55 389.589Z" fill="#005CB4"/>
        <path d="M614.423 389.069C614.423 389.069 631.989 380.856 638.777 342.341C643.725 314.261 628.183 282.303 628.183 282.303C628.183 282.303 587.283 323.385 614.423 389.069Z" fill="#741AAC"/>
        <path opacity="0.3" d="M90.7597 217.922L260.616 144.184L474.538 395.208L85.3467 232.134" fill="#83FFFF"/>
        <path d="M260.615 144.184H618.247V393.673H260.615V144.184Z" fill="url(#paint14_linear_187_6065)"/>
        <path d="M285.889 158.712H604.153V294.627H285.889V158.712Z" fill="url(#paint15_linear_187_6065)"/>
        <path d="M285.889 302.142H451.028V381.284H285.889V302.142Z" fill="url(#paint16_linear_187_6065)"/>
        <path d="M375.394 231.399H392.05V291.306H375.394V231.399Z" fill="#A600A9"/>
        <path d="M394.224 220.052H410.881V291.306H394.224V220.052Z" fill="url(#paint17_linear_187_6065)"/>
        <path d="M413.127 181.211H429.784V291.316H413.127V181.211Z" fill="#A600A9"/>
        <path d="M273.874 175.323C275.935 175.323 277.607 173.649 277.607 171.584C277.607 169.519 275.935 167.845 273.874 167.845C271.813 167.845 270.142 169.519 270.142 171.584C270.142 173.649 271.813 175.323 273.874 175.323Z" fill="url(#paint18_linear_187_6065)"/>
        <path d="M273.874 200.65C275.935 200.65 277.607 198.976 277.607 196.911C277.607 194.846 275.935 193.172 273.874 193.172C271.813 193.172 270.142 194.846 270.142 196.911C270.142 198.976 271.813 200.65 273.874 200.65Z" fill="url(#paint19_linear_187_6065)"/>
        <path d="M273.874 228.46C275.935 228.46 277.607 226.786 277.607 224.721C277.607 222.656 275.935 220.982 273.874 220.982C271.813 220.982 270.142 222.656 270.142 224.721C270.142 226.786 271.813 228.46 273.874 228.46Z" fill="url(#paint20_linear_187_6065)"/>
        <path d="M575.649 330.817C563.198 334.453 563.244 328.668 548.388 326.138C533.542 323.608 528.937 328.668 521.778 333.905C514.629 339.132 503.571 333.653 496.756 331.328C489.931 329.003 479.718 332.658 471.761 339.243C469.152 341.41 465.503 342.629 461.789 343.308V372.652H603.067V311.312C593.93 316.186 585.574 327.915 575.649 330.817Z" fill="url(#paint21_linear_187_6065)"/>
        <path d="M575.649 339.439C563.198 343.075 563.244 337.29 548.388 334.76C533.542 332.23 528.937 337.29 521.778 342.527C514.62 347.763 503.571 342.276 496.756 339.95C489.931 337.625 479.718 341.28 471.761 347.865C469.152 350.033 465.503 351.251 461.789 351.93V381.274H603.067V319.935C593.93 324.818 585.574 336.537 575.649 339.439Z" fill="#00759F"/>
        <path d="M301.71 227.632H318.367V291.306H301.71V227.632Z" fill="#A600A9"/>
        <path d="M320.038 208.891H336.695V291.307H320.038V208.891Z" fill="url(#paint22_linear_187_6065)"/>
        <path d="M338.236 251.517H354.893V291.315H338.236V251.517Z" fill="url(#paint23_linear_187_6065)"/>
        <path d="M356.686 263.068H373.342V291.306H356.686V263.068Z" fill="url(#paint24_linear_187_6065)"/>
        <path d="M408.225 331.784H413.675V372.987H408.225V331.784Z" fill="url(#paint25_linear_187_6065)"/>
        <path d="M399.832 349.121H405.282V372.978H399.832V349.121Z" fill="#005CB4"/>
        <path d="M391.438 345.401H396.889V372.988H391.438V345.401Z" fill="#A600A9"/>
        <path d="M383.045 361.863H388.495V372.987H383.045V361.863Z" fill="#005CB4"/>
        <path d="M425.021 322.781H430.472V372.978H425.021V322.781Z" fill="#00759F"/>
        <path d="M416.618 327.375H422.068V372.987H416.618V327.375Z" fill="url(#paint26_linear_187_6065)"/>
        <path d="M441.809 317.814H447.259V372.978H441.809V317.814Z" fill="#A600A9"/>
        <path d="M433.415 306.923H438.865V372.988H433.415V306.923Z" fill="#005CB4"/>
        <path d="M388.347 378.159C388.347 378.289 387.27 378.391 385.933 378.391C384.605 378.391 383.519 378.289 383.519 378.159C383.519 378.029 384.596 377.917 385.933 377.917C387.27 377.917 388.347 378.029 388.347 378.159ZM396.629 378.159C396.629 378.289 395.552 378.391 394.215 378.391C392.887 378.391 391.81 378.289 391.81 378.159C391.81 378.029 392.887 377.917 394.215 377.917C395.552 377.917 396.629 378.029 396.629 378.159ZM404.901 378.159C404.901 378.289 403.824 378.391 402.497 378.391C401.169 378.391 400.092 378.289 400.092 378.159C400.092 378.029 401.169 377.917 402.497 377.917C403.824 377.917 404.901 378.029 404.901 378.159ZM413.174 378.159C413.174 378.289 412.097 378.391 410.769 378.391C409.442 378.391 408.355 378.289 408.355 378.159C408.355 378.029 409.432 377.917 410.769 377.917C412.097 377.917 413.174 378.029 413.174 378.159ZM421.456 378.159C421.456 378.289 420.379 378.391 419.051 378.391C417.724 378.391 416.637 378.289 416.637 378.159C416.637 378.029 417.714 377.917 419.051 377.917C420.379 377.917 421.456 378.029 421.456 378.159ZM429.729 378.159C429.729 378.289 428.652 378.391 427.315 378.391C425.987 378.391 424.901 378.289 424.901 378.159C424.901 378.029 425.978 377.917 427.315 377.917C428.652 377.917 429.729 378.029 429.729 378.159ZM438.011 378.159C438.011 378.289 436.934 378.391 435.597 378.391C434.269 378.391 433.192 378.289 433.192 378.159C433.192 378.029 434.269 377.917 435.597 377.917C436.925 377.917 438.011 378.029 438.011 378.159ZM446.284 378.159C446.284 378.289 445.207 378.391 443.87 378.391C442.542 378.391 441.465 378.289 441.465 378.159C441.465 378.029 442.542 377.917 443.87 377.917C445.207 377.917 446.284 378.029 446.284 378.159Z" fill="#1A2E35"/>
        <path opacity="0.5" d="M95.4206 415.967C123.429 415.967 146.134 412.623 146.134 408.498C146.134 404.374 123.429 401.03 95.4206 401.03C67.4123 401.03 44.707 404.374 44.707 408.498C44.707 412.623 67.4123 415.967 95.4206 415.967Z" fill="#000640"/>
        <path d="M100.972 238.504L94.213 268.249C94.0273 269.058 94.5751 269.858 95.4015 269.97L116.441 272.992C117.174 273.095 117.861 272.62 118.029 271.904L124.788 242.169C124.974 241.36 124.426 240.56 123.609 240.439L102.569 237.416C101.827 237.305 101.139 237.779 100.972 238.504Z" fill="black"/>
        <path d="M102.291 239.462L95.8193 267.933L116.71 270.937L123.182 242.467L102.291 239.462Z" fill="url(#paint27_linear_187_6065)"/>
        <path d="M120.962 244.56L103.219 242.011M120.368 247.257L102.616 244.699M112.977 249.489L101.882 247.889M112.188 251.796L101.093 250.205M111.399 254.112L100.304 252.521M115.466 266.891L104.38 265.301" stroke="#A1D2F0" stroke-width="1.481" stroke-linecap="round" stroke-linejoin="round"/>
        <path d="M92.8759 268.593C94.0643 268.035 94.9557 266.993 95.8006 265.98L98.3075 262.994C98.6418 262.603 98.9853 262.166 99.0224 261.655C97.6204 261.543 96.7198 263.366 95.3178 263.468C95.9677 261.162 96.9055 258.929 98.1032 256.846C98.3911 256.334 98.7067 255.748 98.5025 255.2C96.9891 255.776 95.7078 256.855 94.6122 258.046C93.8415 258.883 93.1266 259.785 92.5045 260.734C90.6568 263.533 89.5055 266.752 88.7256 270.025" fill="url(#paint28_linear_187_6065)"/>
        <path d="M86.8871 310.559L80.3506 325.571C83.1082 330.231 84.6959 335.737 84.9094 341.308C85.0208 344.21 84.7609 347.103 84.8444 350.005C84.8537 350.209 84.8816 350.432 84.928 350.637C85.8008 346.34 86.46 342.796 86.7107 340.499C87.4256 334.044 87.4256 323.785 87.2028 310.541C87.1099 310.541 86.9985 310.541 86.8871 310.559Z" fill="#F2A181"/>
        <path d="M86.8506 292.552L71.8278 279.856C71.8278 279.856 64.8364 289.353 67.4733 298.514C68.7731 303.016 70.398 305.257 71.1036 307.397C71.7628 309.396 76.2845 337.662 75.9503 339.736C75.616 341.801 73.1834 347.586 72.2549 353.669C71.2336 360.356 71.3079 380.846 70.6672 389.134H70.658C70.658 389.134 70.1473 395.319 69.4138 396.667C68.6896 398.016 67.659 399.523 67.4826 401.355C67.3804 402.415 67.9654 403.541 69.1817 404.164C70.398 404.787 71.215 404.136 71.6514 404.192C74.1955 404.499 74.6504 406.433 79.0143 407.159C80.3606 407.382 82.4218 406.926 83.601 405.996C84.0652 405.633 84.0466 405.048 83.7867 404.638C83.5267 404.238 80.3049 403.132 78.8564 402.192C77.473 401.299 76.1174 398.844 75.7367 398.007C75.6439 397.793 75.6625 397.179 75.746 396.407C75.941 395.086 76.1638 393.71 76.4052 392.287C76.6002 391.273 76.7581 390.538 76.7581 390.538L76.7116 390.529C79.8963 372.522 85.82 348.73 86.7299 340.527C87.7327 331.365 87.3242 314.633 86.8506 292.552Z" fill="url(#paint29_linear_187_6065)"/>
        <path d="M83.9347 406.294C84.2504 405.745 84.334 404.926 84.0369 404.722C83.6283 404.443 82.1613 403.476 81.3164 403.085C80.4715 402.694 79.1252 402.35 79.5987 402.611C80.0723 402.871 79.1995 403.829 78.4103 403.773C75.6713 403.606 73.6565 401.783 72.0966 401.392C69.8497 400.825 68.9026 398.165 68.8005 397.737C68.3734 398.007 67.3892 400.155 67.185 400.825C67.0085 401.439 66.6743 402.545 66.8507 403.178C66.9714 403.615 67.2314 404.499 67.1014 405.429C67.1014 405.429 67.5471 405.773 68.7169 406.015C69.4597 406.173 70.4625 406.043 70.4625 406.043L70.6575 404.629C70.6575 404.629 71.2703 404.61 72.0502 404.768C72.8301 404.926 74.1021 405.671 74.1764 405.764C74.4921 406.136 74.7428 406.824 75.1513 407.028C76.2469 407.577 77.3518 407.847 78.7445 407.931C81.6785 408.079 83.3869 407.224 83.9347 406.294Z" fill="black"/>
        <path d="M107.36 406.015C107.035 405.662 103.554 405.094 101.929 404.406C100.378 403.755 98.4934 401.662 98.122 400.769C97.7506 399.886 97.8434 395.384 97.8898 393.496C98.2148 380.484 100.62 348.684 100.963 341.076C101.567 327.84 99.8489 314.177 94.7702 292.934L75.8384 278.378C75.8384 278.378 70.5368 288.246 72.3102 297.687C73.3408 303.165 77.8718 304.002 78.6424 306.132C79.4131 308.262 90.8612 342.573 90.8612 342.573C90.8612 342.573 88.6329 349.995 88.5029 358.124C88.3915 365.063 91.5298 385.99 92.1147 393.961C92.1797 395.514 92.4489 399.253 91.994 400.435C91.4369 401.886 89.9978 403.597 90.072 405.429C90.1092 406.499 90.8798 407.503 92.2261 407.922C93.5631 408.34 94.3152 407.559 94.7794 407.54C97.4442 407.429 98.187 409.27 102.792 409.261C104.213 409.261 106.274 408.48 107.37 407.354C107.778 406.955 107.685 406.378 107.36 406.015Z" fill="url(#paint30_linear_187_6065)"/>
        <path d="M107.76 407.652C108.011 407.057 107.974 406.229 107.649 406.08C107.184 405.875 105.541 405.15 104.613 404.908C103.684 404.657 102.254 404.536 102.774 404.713C103.294 404.89 102.533 405.978 101.706 406.061C98.8559 406.34 96.5162 404.871 94.8542 404.741C92.4494 404.555 91.5674 402.081 91.4095 401.662C91.0103 401.997 89.8218 404.276 89.7104 404.983C89.6083 405.615 89.4319 406.768 89.7011 407.364C89.8868 407.773 90.2861 408.61 90.2768 409.54C90.2768 409.54 90.7874 409.8 92.0316 409.856C92.8208 409.884 93.8328 409.596 93.8328 409.596V408.163C93.8328 408.163 94.4642 408.043 95.2906 408.07C96.1169 408.098 97.1382 408.526 97.6396 408.898C98.0296 409.196 98.4381 409.689 98.9023 409.81C100.239 410.145 101.196 410.238 102.644 410.089C105.68 409.782 107.324 408.656 107.76 407.652Z" fill="black"/>
        <path d="M72.2267 278.257C70.9454 279.671 66.368 287.316 66.3122 293.529C66.2658 299.752 68.4756 303.742 68.6706 305.035C70.119 314.54 71.5303 325.999 71.5303 326.622C71.5303 327.245 76.9155 330.845 84.1576 330.389C97.537 329.543 102.737 326.036 102.737 326.036C102.737 326.036 102.105 303.016 100.044 291.669C99.0133 285.986 94.5102 276.825 94.5102 276.825" fill="url(#paint31_linear_187_6065)"/>
        <path d="M60.0176 253.405C60.0176 253.405 62.1717 264.129 62.738 266.035C63.3044 267.942 66.0991 280.061 68.7453 279.847C71.3915 279.633 85.9036 267.505 85.9036 267.505L83.8517 263.385L71.0758 269.486C71.0758 269.486 69.9245 255.637 68.9124 252.335" fill="white"/>
        <path d="M64.957 260.008C66.3126 264.798 69.0795 269.839 69.9058 273.56C70.073 274.304 78.9214 271.086 78.9399 267.756" fill="url(#paint32_linear_187_6065)"/>
        <path d="M63.8245 247.164C63.8245 247.164 63.3603 256.12 64.9759 260.641C66.5728 260.613 67.9748 260.241 67.9748 260.241L63.8245 247.164Z" fill="#B03D44"/>
        <path d="M88.9118 210.425C91.4651 213.736 90.9637 218.405 90.3324 222.544C90.0167 224.637 89.6917 226.73 89.376 228.822C89.2275 229.818 89.0232 230.906 88.2526 231.548C87.4726 232.189 86.3585 232.18 85.3464 232.143L85.3743 237.342C82.4124 237.407 79.4599 237.426 76.498 237.379C76.498 236.161 76.2287 234.952 75.7366 233.854C74.2882 233.826 73.3226 232.375 72.7562 231.036C72.1063 229.501 71.6235 227.892 71.1685 226.283C70.5557 224.153 69.9708 221.986 69.9151 219.763C69.8594 217.54 70.3886 215.234 71.7906 213.522C72.7469 212.35 74.0561 211.523 75.3931 210.825C77.2315 209.867 79.432 209.114 81.3261 209.951" fill="white"/>
        <path d="M86.34 218.024C86.5721 218.387 86.5164 218.879 86.7392 219.252C87.1106 219.884 87.5934 220.107 88.2527 220.414C89.3111 220.907 89.0697 222.46 89.0326 223.149C89.8311 222.618 89.9611 221.158 90.156 220.423C90.3696 219.596 90.5089 218.74 90.7596 217.921C90.9917 217.122 91.4002 216.368 91.4745 215.522C91.7345 212.611 89.9146 209.188 87.7049 207.56C86.0986 206.37 83.6567 206.416 81.8461 207.625C81.0848 208.137 80.5091 208.9 80.1749 209.755C80.0263 210.118 79.9335 210.546 80.1099 210.899" fill="black"/>
        <path d="M72.0967 238.579C72.2452 237.565 72.5238 236.384 73.4615 235.984C73.7215 235.872 74.0093 235.835 74.2972 235.807C77.1848 235.491 80.0909 235.351 82.9878 235.398C84.1855 235.417 85.4297 235.482 86.5067 236.012C88.1872 236.858 89.1157 238.672 89.9328 240.374" fill="url(#paint33_linear_187_6065)"/>
        <path d="M95.5408 258.028C95.5408 258.976 95.0116 260.25 94.8444 260.743C94.1852 261.088 91.5669 261.646 90.0628 260.957C89.7285 257.823 87.8994 251.796 87.8994 251.796C87.8994 251.796 95.5408 257.153 95.5408 258.028Z" fill="#B03D44"/>
        <path d="M92.1797 255.842C92.1797 255.842 100.852 276.825 104.612 276.825C107.351 276.825 114.055 257.451 114.055 257.451L109.812 255.442L105.086 263.552L100.304 248.419" fill="white"/>
        <path d="M108.976 256.883C108.976 256.883 110.378 254.67 110.275 253.098C110.238 252.502 109.876 249.647 110.173 249.089C110.47 248.531 111.185 246.689 111.594 246.336C112.002 245.982 113.507 245.406 113.878 245.657C114.249 245.908 114.704 244.736 115.317 244.838C115.93 244.941 116.431 245.452 116.431 246.01C116.431 246.568 117.248 246.671 117.35 247.08C117.453 247.489 117.406 247.843 117.555 248.15C117.703 248.456 118.158 248.308 118.316 249.07C118.465 249.768 118.27 249.833 118.316 250.196C118.363 250.549 118.669 250.521 118.567 251.2C118.465 251.879 118 252.763 117.592 253.525C117.183 254.288 116.348 255.246 115.224 255.925C114.676 256.26 114.37 256.846 113.841 257.832" fill="white"/>
        <path d="M111.307 240.672C111.195 240.504 110.908 240.225 110.555 240.467C110.211 240.709 110.313 241.127 110.388 241.304L112.95 247.117C112.95 247.117 113.154 247.359 113.554 247.006C113.981 246.624 113.851 246.438 113.851 246.438C113.851 246.438 111.409 240.839 111.307 240.672Z" fill="black"/>
        <path d="M113.999 246.057C113.507 246.931 112.941 247.21 112.44 247.685C112.04 248.057 112.087 248.299 111.65 248.689C112.421 248.634 112.291 248.178 113.285 247.452C113.749 247.117 114.222 246.755 114.315 246.187C114.352 246.001 114.12 245.89 113.999 246.057Z" fill="black"/>
        <path d="M95.5499 259.664C98.3446 259.153 100.508 257.209 102.727 254.94C101.492 251.526 99.7373 243.127 96.6826 239.918C93.5258 236.617 88.2056 237.026 85.3551 237.119C82.4026 236.989 79.97 237.342 76.4417 237.5C74.0927 237.603 71.7529 237.882 69.4503 238.384C69.1903 238.44 68.9303 238.505 68.6704 238.57V238.542C68.6704 238.542 64.4365 238.998 62.2824 240.644C56.8044 244.839 61.0475 260.083 61.0475 260.083C61.0475 260.083 60.7783 260.892 64.4551 260.688C65.0771 260.65 65.6806 260.595 66.2563 260.52C68.169 265.012 72.9785 274.276 71.5765 276.257C71.2144 276.769 70.2952 277.755 70.1838 278.397C69.7752 280.75 75.0954 281.587 77.3702 281.773C80.8334 282.061 84.8166 281.866 88.2891 281.708C90.926 281.587 96.6826 280.666 97.0911 277.401C97.1747 276.76 96.859 276.248 96.5433 275.783C96.1348 275.188 95.2063 274.472 94.8721 273.811C94.0736 272.23 93.3679 265.58 93.6465 263.887C93.86 262.529 94.7885 261.646 95.5499 259.664Z" fill="url(#paint34_linear_187_6065)"/>
        <path d="M86.7114 330.184C85.8572 324.66 80.5834 307.546 80.3606 307.071C77.4823 304.839 75.5882 302.533 74.6319 300.672C73.9819 304.421 75.6903 308.132 77.2873 311.592C80.082 317.628 81.744 324.185 84.1488 330.389" fill="url(#paint35_linear_187_6065)"/>
        <path d="M85.8565 226.218C85.5037 224.479 85.5315 223.493 86.0979 222.33C86.2836 221.949 86.5343 221.586 86.8778 221.344C87.342 221.019 87.9456 220.954 88.4562 221.177C88.7905 221.326 89.0597 221.595 89.2547 221.921C89.8582 219.586 89.9882 217.094 89.8118 214.666C89.5333 210.816 87.2213 207.839 83.8324 206.444C77.5652 203.868 68.5682 206.416 66.0241 212.574C64.1022 217.224 65.0771 223.939 68.7539 227.846C72.0128 231.296 76.6924 231.808 81.0191 231.092C83.2289 230.729 86.6457 230.943 87.7877 227.929C87.8806 227.697 87.6763 227.464 87.4442 227.483C86.5436 227.557 85.9215 226.544 85.8565 226.218Z" fill="black"/>
        <path d="M73.6385 228.934C71.8372 228.422 69.8874 229.436 68.6804 230.887C67.2877 232.552 66.6934 235.147 67.984 236.877C68.4668 237.528 69.1632 237.983 69.8688 238.383C72.0229 239.583 74.5669 240.29 76.9624 239.704C79.3486 239.118 81.447 236.97 81.4191 234.505C81.3913 232.273 79.7664 230.412 78.123 228.906" fill="black"/>
        <path opacity="0.5" d="M622.834 411.214C622.834 416.674 600.699 421.101 573.402 421.101C546.105 421.101 523.97 416.674 523.97 411.214C523.97 405.754 546.095 401.327 573.402 401.327C600.709 401.327 622.834 405.754 622.834 411.214Z" fill="#000640"/>
        <path d="M557.135 245.964L563.69 274.806C563.866 275.588 563.337 276.36 562.538 276.481L542.13 279.42C541.425 279.522 540.747 279.057 540.589 278.359L534.034 249.517C533.858 248.726 534.387 247.954 535.185 247.843L555.593 244.913C556.308 244.801 556.977 245.266 557.135 245.964Z" fill="black"/>
        <path d="M555.862 246.894L562.139 274.518L541.87 277.429L535.594 249.805L555.862 246.894Z" fill="url(#paint36_linear_187_6065)"/>
        <path d="M537.739 251.842L554.963 249.368M538.324 254.456L555.538 251.982M545.492 256.623L556.253 255.07M546.253 258.864L557.015 257.311M547.024 261.106L557.785 259.562M543.078 273.504L553.839 271.96" stroke="#A1D2F0" stroke-width="1.436" stroke-linecap="round" stroke-linejoin="round"/>
        <path d="M564.99 275.16C563.839 274.611 562.975 273.606 562.158 272.62C561.35 271.653 560.533 270.686 559.726 269.718C559.401 269.337 559.066 268.919 559.029 268.426C560.394 268.314 561.267 270.081 562.623 270.183C561.991 267.942 561.081 265.775 559.921 263.757C559.642 263.264 559.336 262.687 559.531 262.157C560.998 262.715 562.242 263.766 563.31 264.919C564.062 265.728 564.749 266.603 565.352 267.523C567.144 270.239 568.258 273.364 569.02 276.536" fill="black"/>
        <path d="M570.793 315.852L577.125 330.417C574.451 334.937 572.91 340.276 572.706 345.68C572.603 348.489 572.845 351.307 572.771 354.116C572.761 354.311 572.733 354.525 572.687 354.73C571.842 350.563 571.201 347.131 570.96 344.889C570.264 338.63 570.264 328.678 570.486 315.833C570.589 315.842 570.691 315.842 570.793 315.852Z" fill="#F2A181"/>
        <path d="M570.84 298.394L585.408 286.079C585.408 286.079 592.185 295.287 589.632 304.179C588.379 308.55 586.8 310.717 586.113 312.791C585.473 314.726 581.09 342.155 581.415 344.154C581.74 346.163 584.098 351.772 584.999 357.669C585.992 364.151 585.918 384.028 586.54 392.073H586.55C586.55 392.073 587.051 398.072 587.757 399.374C588.462 400.686 589.456 402.146 589.632 403.913C589.734 404.936 589.159 406.034 587.979 406.638C586.8 407.243 586.011 406.61 585.584 406.666C583.114 406.964 582.678 408.843 578.444 409.54C577.135 409.754 575.139 409.317 573.987 408.405C573.542 408.052 573.56 407.485 573.811 407.094C574.062 406.703 577.181 405.625 578.592 404.722C579.939 403.857 581.248 401.476 581.619 400.658C581.712 400.444 581.694 399.858 581.61 399.105C581.415 397.821 581.202 396.482 580.969 395.114C580.784 394.128 580.635 393.412 580.635 393.412L580.682 393.403C577.599 375.945 571.852 352.86 570.97 344.898C569.976 336.035 570.375 319.814 570.84 298.394Z" fill="black"/>
        <path d="M573.662 408.712C573.356 408.182 573.272 407.382 573.56 407.187C573.959 406.917 575.38 405.978 576.197 405.597C577.014 405.215 578.323 404.88 577.859 405.132C577.404 405.383 578.249 406.313 579.01 406.257C581.666 406.099 583.625 404.322 585.138 403.95C587.32 403.402 588.239 400.825 588.332 400.407C588.75 400.667 589.706 402.751 589.901 403.402C590.078 403.997 590.393 405.076 590.226 405.69C590.115 406.118 589.855 406.973 589.985 407.866C589.985 407.866 589.558 408.201 588.416 408.433C587.691 408.582 586.726 408.452 586.726 408.452L586.54 407.076C586.54 407.076 585.946 407.057 585.194 407.206C584.442 407.364 583.207 408.08 583.133 408.173C582.826 408.536 582.585 409.196 582.186 409.401C581.127 409.94 580.05 410.191 578.704 410.275C575.853 410.452 574.191 409.624 573.662 408.712Z" fill="black"/>
        <path d="M550.942 408.452C551.258 408.108 554.628 407.559 556.216 406.889C557.72 406.257 559.549 404.229 559.902 403.364C560.255 402.499 560.171 398.137 560.134 396.305C559.818 383.683 557.488 352.841 557.154 345.456C556.569 332.621 558.231 319.367 563.161 298.756L581.526 284.637C581.526 284.637 586.67 294.217 584.943 303.369C583.94 308.68 579.549 309.499 578.806 311.564C578.063 313.628 566.958 346.907 566.958 346.907C566.958 346.907 569.122 354.106 569.243 361.984C569.354 368.718 566.299 389.013 565.733 396.742C565.668 398.258 565.408 401.876 565.854 403.02C566.401 404.434 567.785 406.089 567.72 407.866C567.683 408.898 566.94 409.884 565.631 410.284C564.331 410.693 563.607 409.931 563.161 409.912C560.571 409.8 559.856 411.586 555.39 411.586C554.015 411.586 552.01 410.823 550.951 409.735C550.534 409.354 550.627 408.796 550.942 408.452Z" fill="black"/>
        <path d="M550.561 410.033C550.32 409.456 550.348 408.656 550.673 408.507C551.118 408.303 552.715 407.605 553.616 407.363C554.517 407.122 555.909 407.01 555.399 407.177C554.888 407.354 555.631 408.405 556.429 408.48C559.196 408.749 561.462 407.326 563.077 407.196C565.408 407.01 566.262 404.61 566.42 404.21C566.81 404.536 567.961 406.75 568.063 407.429C568.165 408.042 568.332 409.159 568.072 409.745C567.896 410.144 567.506 410.954 567.515 411.856C567.515 411.856 567.023 412.116 565.816 412.163C565.055 412.191 564.071 411.912 564.071 411.912V410.526C564.071 410.526 563.458 410.405 562.659 410.442C561.852 410.47 560.867 410.879 560.385 411.251C560.004 411.54 559.605 412.023 559.159 412.135C557.868 412.46 556.94 412.553 555.529 412.414C552.576 412.098 550.979 411.009 550.561 410.033Z" fill="black"/>
        <path d="M585.027 284.525C586.271 285.893 590.709 293.306 590.756 299.342C590.802 305.378 588.657 309.247 588.471 310.503C587.06 319.72 592.947 366.123 592.947 366.727C592.947 367.332 585.454 373.406 578.462 374.205C563.105 375.963 548.621 369.369 548.621 369.369C548.621 369.369 551.258 333.765 558.045 297.538C559.076 292.031 563.412 283.14 563.412 283.14" fill="url(#paint37_linear_187_6065)"/>
        <path d="M596.864 260.418C596.864 260.418 594.775 270.816 594.228 272.667C593.68 274.518 590.969 286.274 588.397 286.07C585.825 285.865 571.749 274.09 571.749 274.09L573.745 270.1L586.14 276.015C586.14 276.015 587.264 262.576 588.239 259.376" fill="black"/>
        <path d="M593.169 254.372C593.169 254.372 593.624 263.059 592.046 267.449C590.495 267.421 589.14 267.068 589.14 267.068L593.169 254.372Z" fill="#B03D44"/>
        <path d="M568.834 218.731C566.355 221.949 566.847 226.469 567.46 230.487C567.766 232.515 568.073 234.552 568.388 236.579C568.537 237.547 568.732 238.598 569.484 239.221C570.236 239.844 571.322 239.835 572.297 239.798L572.27 244.839C575.139 244.904 578.008 244.922 580.877 244.876C580.877 243.695 581.136 242.523 581.619 241.453C583.021 241.425 583.959 240.021 584.507 238.719C585.138 237.23 585.603 235.668 586.048 234.105C586.642 232.041 587.209 229.929 587.264 227.781C587.32 225.632 586.81 223.391 585.445 221.726C584.516 220.591 583.244 219.791 581.944 219.112C580.162 218.182 578.026 217.447 576.188 218.257" fill="white"/>
        <path d="M571.332 226.106C571.109 226.46 571.155 226.934 570.951 227.297C570.598 227.911 570.124 228.125 569.484 228.422C568.453 228.906 568.695 230.403 568.723 231.082C567.943 230.562 567.822 229.157 567.636 228.432C567.423 227.632 567.293 226.804 567.051 226.004C566.828 225.223 566.429 224.497 566.355 223.679C566.104 220.851 567.868 217.54 570.004 215.95C571.554 214.796 573.931 214.843 575.686 216.015C576.429 216.508 576.986 217.252 577.311 218.08C577.45 218.433 577.552 218.852 577.376 219.187" fill="black"/>
        <path d="M585.147 246.039C584.999 245.053 584.739 243.909 583.819 243.518C583.569 243.406 583.29 243.378 583.012 243.351C580.208 243.044 577.394 242.904 574.581 242.951C573.42 242.969 572.213 243.025 571.174 243.546C569.539 244.364 568.639 246.132 567.85 247.778" fill="url(#paint38_linear_187_6065)"/>
        <path d="M562.408 264.901C562.408 265.821 562.919 267.049 563.086 267.542C563.727 267.868 566.271 268.416 567.728 267.756C568.044 264.715 569.827 258.864 569.827 258.864C569.827 258.864 562.408 264.054 562.408 264.901Z" fill="#B03D44"/>
        <path d="M565.667 262.78C565.667 262.78 557.255 283.131 553.615 283.131C550.96 283.131 544.451 264.343 544.451 264.343L548.564 262.389L553.151 270.258L557.793 255.581" fill="black"/>
        <path d="M549.373 263.803C549.373 263.803 548.008 261.654 548.11 260.129C548.147 259.543 548.49 256.781 548.203 256.241C547.915 255.702 547.228 253.916 546.829 253.572C546.429 253.228 544.972 252.669 544.619 252.921C544.266 253.172 543.82 252.028 543.226 252.13C542.632 252.232 542.14 252.725 542.14 253.265C542.14 253.804 541.35 253.907 541.248 254.306C541.146 254.706 541.193 255.051 541.053 255.348C540.905 255.646 540.468 255.497 540.311 256.241C540.171 256.92 540.357 256.985 540.311 257.329C540.264 257.673 539.967 257.646 540.06 258.306C540.162 258.966 540.608 259.822 541.007 260.566C541.406 261.31 542.214 262.231 543.3 262.891C543.839 263.217 544.127 263.784 544.637 264.742" fill="black"/>
        <path d="M547.116 248.075C547.218 247.917 547.506 247.647 547.84 247.88C548.175 248.112 548.073 248.521 547.998 248.689L545.51 254.325C545.51 254.325 545.306 254.558 544.925 254.214C544.507 253.851 544.637 253.665 544.637 253.665C544.637 253.665 547.014 248.233 547.116 248.075Z" fill="white"/>
        <path d="M544.498 253.293C544.971 254.139 545.519 254.409 546.011 254.874C546.401 255.237 546.345 255.469 546.772 255.851C546.02 255.795 546.15 255.348 545.185 254.651C544.739 254.325 544.275 253.972 544.182 253.423C544.154 253.237 544.386 253.135 544.498 253.293Z" fill="black"/>
        <path d="M562.39 266.491C559.679 265.989 557.581 264.11 555.427 261.906C556.624 258.604 558.324 250.447 561.285 247.34C564.34 244.141 569.502 244.531 572.269 244.624C575.129 244.494 577.487 244.838 580.913 244.996C583.188 245.099 585.463 245.359 587.701 245.852C587.961 245.908 588.211 245.964 588.453 246.029L588.462 246.001C588.462 246.001 592.575 246.438 594.655 248.038C599.966 252.112 595.853 266.891 595.853 266.891C595.853 266.891 596.113 267.681 592.547 267.477C591.944 267.44 591.359 267.384 590.802 267.309C588.945 271.672 584.275 280.647 585.639 282.572C585.992 283.075 586.884 284.023 586.986 284.646C587.376 286.935 582.223 287.734 580.013 287.92C576.652 288.199 572.789 288.013 569.419 287.855C566.866 287.734 561.285 286.841 560.886 283.679C560.812 283.056 561.118 282.563 561.425 282.107C561.815 281.531 562.715 280.833 563.04 280.201C563.82 278.666 564.498 272.22 564.229 270.574C564.034 269.272 563.133 268.416 562.39 266.491Z" fill="#A600A9"/>
        <path d="M571.805 234.049C572.139 232.357 572.121 231.408 571.564 230.282C571.378 229.91 571.136 229.557 570.812 229.324C570.591 229.17 570.334 229.075 570.066 229.047C569.798 229.019 569.527 229.06 569.28 229.166C568.955 229.306 568.695 229.566 568.509 229.883C567.924 227.613 567.803 225.195 567.97 222.842C568.24 219.103 570.487 216.219 573.773 214.861C579.855 212.36 588.583 214.834 591.052 220.805C592.919 225.316 591.972 231.836 588.406 235.612C585.249 238.96 580.7 239.453 576.512 238.765C574.368 238.412 571.053 238.625 569.948 235.705C569.864 235.482 570.059 235.249 570.282 235.268C571.136 235.352 571.74 234.366 571.805 234.049Z" fill="black"/>
        <path d="M583.652 236.691C585.407 236.198 587.292 237.184 588.461 238.579C589.808 240.197 590.393 242.708 589.13 244.392C588.656 245.024 587.988 245.471 587.301 245.852C585.212 247.015 582.742 247.703 580.421 247.126C578.1 246.559 576.066 244.476 576.094 242.085C576.122 239.918 577.7 238.114 579.288 236.654" fill="black"/>
        <path d="M570.811 229.325C570.811 229.325 572.594 229.343 570.263 235.277C567.933 241.211 567.71 252.419 567.71 252.419C567.71 252.419 574.07 255.06 582.631 254.837C591.191 254.614 592.064 254.614 592.287 253.954C592.51 253.293 597.774 221.205 586.14 215.708" fill="black"/>
        <path opacity="0.5" d="M517.08 464.788C545.088 464.788 567.793 461.444 567.793 457.319C567.793 453.194 545.088 449.851 517.08 449.851C489.071 449.851 466.366 453.194 466.366 457.319C466.366 461.444 489.071 464.788 517.08 464.788Z" fill="#000640"/>
        <path d="M458.901 354.553H507.034L504.954 349.93H456.998L458.901 354.553Z" fill="black"/>
        <path d="M550.198 457.524H544.498L473.376 276.964H479.615L550.198 457.524Z" fill="black"/>
        <path d="M448.679 328.631H496.811L494.731 324.008H446.775L448.679 328.631ZM438.363 302.346H486.496L484.416 297.714H436.46L438.363 302.346ZM498.891 457.524H493.19L422.068 276.964H428.317L498.891 457.524Z" fill="black"/>
        <path d="M489.3 433.053H537.441L535.362 428.43H487.406L489.3 433.053ZM479.17 406.759H527.302L525.223 402.136H477.267L479.17 406.759ZM468.938 381.023H517.08L515 376.4H467.044L468.938 381.023Z" fill="black"/>
        <path d="M485.93 179.853L484.165 176.179C484.165 176.179 480.767 177.267 478.056 177.406C475.345 177.546 474.259 178.085 474.259 178.085L472.086 181.62C472.086 181.62 480.498 183.247 485.93 179.853Z" fill="url(#paint39_linear_187_6065)"/>
        <path d="M485.93 179.853C485.93 179.853 490.405 179.444 492.717 180.801C495.029 182.159 497.471 190.726 498.279 196.576C499.096 202.426 500.452 225.13 500.591 229.753C500.73 234.375 500.591 244.848 500.591 244.848C500.591 244.848 488.372 247.434 479.96 247.164C471.548 246.894 464.891 240.225 464.891 240.225C464.891 240.225 465.569 230.571 466.655 227.446C467.741 224.321 469.505 218.61 468.419 213.848C467.333 209.086 464.074 195.358 464.891 190.186C465.708 185.015 464.891 184.066 467.741 183.117C470.592 182.169 472.086 181.62 472.086 181.62C472.086 181.62 479.282 183.248 485.93 179.853Z" fill="url(#paint40_linear_187_6065)"/>
        <path d="M474.528 191.228C474.528 191.228 473.804 196.939 469.459 203.468C465.114 209.997 459.691 216.433 457.881 217.429C456.07 218.424 452.273 218.247 450.193 216.61C448.113 214.982 433.722 198.297 433.722 198.297C433.722 198.297 433.629 196.306 435.263 194.576C436.888 192.855 438.522 192.855 438.522 192.855L452.366 204.547C452.366 204.547 461.14 189.684 463.312 187.052C465.485 184.419 467.658 183.787 469.375 184.057C471.093 184.336 474.714 187.414 474.528 191.228Z" fill="url(#paint41_linear_187_6065)"/>
        <path d="M437.519 192.948C437.519 192.948 434.529 189.777 432.904 188.865C431.279 187.963 426.024 186.875 425.3 186.959C424.576 187.052 424.557 187.545 425.458 188C426.359 188.456 428.373 189.042 428.373 189.042C428.373 189.042 425.839 190.586 425.839 191.674C425.839 192.762 427.463 194.846 428.466 194.846C429.46 194.846 430.908 194.576 430.908 194.576L433.898 196.846C433.898 196.846 434.529 194.037 437.519 192.948Z" fill="white"/>
        <path d="M493.255 181.211C493.116 181.062 506.217 192.428 509.81 197.599C513.403 202.771 516.458 210.314 515.984 212.351C515.511 214.387 511.843 218.201 509.401 220.238C506.959 222.275 500.506 226.628 500.506 226.628L499.968 213.709C499.968 213.709 504.378 209.625 503.97 209.086C503.561 208.546 499.086 204.054 499.086 204.054C499.086 204.054 498.473 195.218 497.052 190.326C495.632 185.424 494.546 182.569 493.255 181.211Z" fill="url(#paint42_linear_187_6065)"/>
        <path d="M465.55 240.83C467.435 242.486 473.108 246.932 479.951 247.155C488.363 247.424 500.582 244.839 500.582 244.839C500.582 244.839 499.087 254.763 497.871 258.707C496.645 262.65 495.837 267.682 495.698 269.31C495.559 270.937 498 298.273 498.409 306.021C498.818 313.768 497.778 338.881 497.778 338.881H490.173C490.173 338.881 487.416 308.606 484.974 291.883C482.532 275.16 481.306 266.185 481.306 266.185L479.542 269.179C479.542 269.179 478.725 298.552 478.047 311.601C477.37 324.65 475.921 339.02 475.921 339.02L467.908 339.43C467.908 339.43 464.742 289.716 464.334 275.439C463.962 261.971 465.392 242.951 465.55 240.83Z" fill="url(#paint43_linear_187_6065)"/>
        <path d="M497.331 338.974C497.331 338.974 498.51 345.587 498.51 346.498C498.51 347.4 498.148 350.488 498.148 350.488C498.148 350.488 492.624 350.674 488.826 350.581C485.029 350.488 480.591 349.586 480.591 349.586C480.591 349.586 479.867 347.14 480.86 345.782C481.853 344.424 485.744 344.154 486.923 342.797C488.102 341.439 490.182 338.899 490.182 338.899C490.182 338.899 496.245 339.337 497.331 338.974Z" fill="url(#paint44_linear_187_6065)"/>
        <path d="M475.345 338.974C475.345 338.974 476.524 345.587 476.524 346.498C476.524 347.4 476.162 350.488 476.162 350.488C476.162 350.488 470.647 350.674 466.84 350.581C463.043 350.488 458.604 349.586 458.604 349.586C458.604 349.586 457.88 347.14 458.874 345.782C459.867 344.424 463.757 344.154 464.937 342.797C466.116 341.439 468.196 338.899 468.196 338.899C468.196 338.899 474.259 339.337 475.345 338.974Z" fill="url(#paint45_linear_187_6065)"/>
        <path d="M484.119 175.723C484.119 175.723 485.168 162.079 484.026 158.498C482.671 154.238 479.95 151.243 475.698 151.066C471.445 150.88 464.389 151.243 462.486 153.605C460.582 155.959 461.576 159.409 461.761 160.497C461.947 161.586 463.748 162.767 463.748 162.767C463.748 162.767 466.459 162.041 467.277 162.674C468.094 163.306 469.356 166.115 469.356 166.115C469.356 166.115 470.276 163.427 471.436 163.939C474.333 165.204 473.423 169.017 472.977 169.826C472.402 170.868 472.977 170.096 472.977 170.096L479.403 177.072C479.412 177.081 482.039 177.36 484.119 175.723Z" fill="black"/>
        <path d="M467.286 162.674C468.103 163.307 469.366 166.116 469.366 166.116C469.366 166.116 470.285 163.428 471.446 163.939C474.342 165.204 473.433 169.017 472.987 169.827C472.411 170.868 472.987 170.096 472.987 170.096L479.412 177.072L474.259 178.067L474.073 176.802C474.073 176.802 472.086 177.528 470.907 177.528C469.728 177.528 468.372 175.082 466.831 172.449C465.29 169.817 463.758 162.749 463.758 162.749C463.758 162.749 466.478 162.042 467.286 162.674Z" fill="white"/>
        <path d="M162.847 330.221C162.847 330.221 177.071 330.221 182.001 329.403L186.932 328.584L205.158 326.287L203.533 332.11C203.533 332.11 197.052 334.416 191.388 335.932C185.715 337.448 174.713 340.425 173.004 340.852C171.296 341.271 162.076 343.233 162.076 343.233" fill="url(#paint46_linear_187_6065)"/>
        <path d="M128.28 355.25C128.28 355.25 123.535 359.129 122.031 362.635C120.536 366.142 120.286 371.146 120.536 372.894C120.787 374.643 121.409 376.401 121.409 376.02C121.409 375.648 119.413 402.918 119.413 402.918C119.413 402.918 110.917 410.173 107.668 416.181C104.418 422.19 97.1758 438.448 97.1758 438.448C97.1758 438.448 103.044 441.322 105.17 441.703L107.296 442.075C107.296 442.075 116.414 423.185 119.162 419.799C120.898 417.66 127.778 411.912 130.406 407.41C133.024 402.909 137.778 384.139 137.778 384.139C137.778 384.139 143.897 390.771 146.645 393.775C149.394 396.779 152.764 401.03 152.764 402.155C152.764 403.281 150.387 411.661 149.765 414.665C149.143 417.669 146.645 438.308 146.645 438.308C146.645 438.308 150.146 439.062 153.145 438.68C156.144 438.308 156.645 437.676 156.645 437.676C156.645 437.676 158.39 423.408 160.015 416.404C161.64 409.401 163.516 403.513 164.017 402.388C164.518 401.262 164.639 398.881 163.014 394.008C161.389 389.125 156.394 378.996 152.402 372.987L148.409 366.979C148.409 366.979 135.151 360.133 128.28 355.25Z" fill="black"/>
        <path d="M137.481 385.32C138.707 378.521 139.468 372.894 139.468 372.894L134.584 392.928C133.303 400.267 127.611 411.102 127.611 411.102C127.611 411.102 127.611 411.13 127.621 411.177C128.735 409.903 129.719 408.628 130.415 407.438C132.634 403.597 136.395 389.468 137.481 385.32Z" fill="url(#paint47_linear_187_6065)"/>
        <path d="M146.645 438.336C146.645 438.336 144.603 441.507 144.519 441.926C144.435 442.344 144.018 446.725 144.018 446.725L151.009 448.288L151.51 446.93C151.51 446.93 158.669 450.52 160.006 450.604C161.343 450.687 167.917 450.604 168.836 450.353C169.755 450.101 170.999 448.437 169.755 447.934C168.502 447.432 164.258 447.265 163.256 446.688C162.253 446.102 157.174 441.433 156.673 440.103C156.171 438.764 156.004 438.02 156.004 438.02C156.004 438.02 153.349 439.498 146.645 438.336Z" fill="url(#paint48_linear_187_6065)"/>
        <path d="M97.3704 438.708C97.3704 438.708 95.1234 441.833 94.6871 443.21C94.2507 444.586 92.8115 448.967 92.8115 448.967C92.8115 448.967 94.8727 450.595 96.3119 451.153C97.751 451.711 98.0574 451.841 98.0574 451.841L99.0602 450.836C99.0602 450.836 102.431 454.092 105.309 454.836C108.178 455.589 113.99 455.84 115.986 455.338C117.983 454.836 118.92 452.901 118.113 452.213C117.305 451.525 114.557 451.274 112.867 449.832C111.177 448.39 108.057 445.823 107.621 444.512C107.184 443.2 107.305 442.075 107.305 442.075C107.305 442.075 106.488 442.652 97.3704 438.708Z" fill="url(#paint49_linear_187_6065)"/>
        <path d="M169.876 449.571C168.864 449.739 167.332 449.795 165.085 449.925C160.675 450.176 159.338 448.837 154.342 447.088C150.378 445.693 145.986 443.991 144.352 443.349C144.203 444.772 144.018 446.716 144.018 446.716L151.009 448.279L151.51 446.921C151.51 446.921 158.669 450.511 160.006 450.595C161.343 450.678 167.917 450.595 168.836 450.343C169.189 450.25 169.588 449.944 169.876 449.571Z" fill="url(#paint50_linear_187_6065)"/>
        <path d="M116.209 454.594C114.631 455.096 107.212 455.18 103.888 453.59C101.177 452.297 95.7734 447.535 93.8421 445.805C93.3315 447.367 92.8115 448.967 92.8115 448.967C92.8115 448.967 94.8728 450.595 96.3119 451.153C97.751 451.711 98.0574 451.841 98.0574 451.841L99.0602 450.836C99.0602 450.836 102.431 454.092 105.309 454.836C108.178 455.589 113.99 455.84 115.986 455.338C117.296 455.013 118.15 454.064 118.354 453.255C117.704 453.896 116.933 454.371 116.209 454.594ZM128.279 355.25L129.533 353L149.43 365.258L148.39 367.007C148.39 367.016 132.615 358.841 128.279 355.25Z" fill="black"/>
        <path d="M129.533 352.999C129.217 352.804 143.441 334.648 148.938 328.807C154.434 322.966 159.346 319.711 163.264 319.962C167.182 320.213 173.255 325.887 174.508 331.058C175.762 336.23 170.757 346.907 169.596 348.823C168.427 350.739 162.689 354.078 158.269 357.501C153.859 360.924 152.689 362.505 151.445 363.426C150.191 364.346 149.448 365.258 149.448 365.258C149.448 365.258 132.364 354.757 129.533 352.999Z" fill="url(#paint51_linear_187_6065)"/>
        <path d="M130.508 353.316C130.861 353.083 138.066 341.197 149.458 329.319C156.756 321.711 162.596 320.232 162.596 320.232C162.596 320.232 159.291 319.767 152.476 325.357C146.664 330.138 129.515 352.999 129.515 352.999L130.508 353.316Z" fill="white"/>
        <path d="M172.828 327.143C172.828 327.143 180.405 321.637 181.574 320.558C182.744 319.47 188.074 318.977 190.813 320.307C193.561 321.646 196.811 329.152 196.727 331.486C196.644 333.821 194.898 335.653 194.898 335.653L192.233 334.984C192.233 334.984 190.154 337.318 189.402 337.737C188.649 338.155 187.572 338.155 187.572 338.155C187.572 338.155 185.827 341.745 185.242 341.745C184.657 341.745 182.828 340.499 182.828 340.499C182.828 340.499 177.248 342.415 176.997 341.913C176.746 341.41 173.914 337.411 173.914 337.411C173.914 337.411 176.245 332.23 172.828 327.143Z" fill="black"/>
        <path d="M164.416 320.306C164.416 320.306 178.491 322.39 183.487 322.306L188.482 322.222L211.796 319.637L212.381 325.143C212.381 325.143 197.646 329.477 191.815 330.147C185.984 330.816 174.666 332.147 172.911 332.314C171.166 332.481 161.751 333.067 161.751 333.067" fill="url(#paint52_linear_187_6065)"/>
        <path d="M211.88 320.725C211.88 320.725 215.789 318.977 216.29 317.972C216.792 316.967 216.624 313.721 217.209 312.382C217.794 311.043 220.375 307.462 220.877 307.462C221.378 307.462 221.712 307.546 221.462 309.796C221.211 312.047 220.626 314.8 220.626 315.889C220.626 316.977 220.877 320.139 220.125 321.06C219.373 321.981 217.961 322.306 216.959 322.809C215.956 323.311 212.214 324.064 212.214 324.064L211.88 320.725Z" fill="white"/>
        <path d="M104.863 101.231H182.419V107.212H104.863V101.231Z" fill="#005CB4"/>
        <path d="M142.15 113.937H219.706V119.917H142.15V113.937Z" fill="#00759F"/>
        <path d="M51.9209 125.135H190.181V131.115H51.9209V125.135Z" fill="#4529AC"/>
        <path d="M259.975 131.115H398.235V137.096H259.975V131.115Z" fill="#3129AC"/>
        <path d="M280.41 118.41H329.629V124.391H280.41V118.41Z" fill="#4529AC"/>
        <path d="M374.066 119.164H427.315V125.144H374.066V119.164Z" fill="#0075B4"/>
        <path opacity="0.3" d="M530.079 121.405H583.327V127.386H530.079V121.405Z" fill="white"/>
        <path opacity="0.1" d="M476.311 101.231H529.559V107.212H476.311V101.231Z" fill="white"/>
        <path d="M263.262 60.8931H314.718V66.8736H263.262V60.8931Z" fill="#00759F"/>
        <path d="M288.618 77.3281H349.016V83.3086H288.618V77.3281Z" fill="#313BAC"/>
        <path d="M301.088 445.637C349.977 445.637 389.609 405.936 389.609 356.962C389.609 307.987 349.977 268.286 301.088 268.286C252.199 268.286 212.566 307.987 212.566 356.962C212.566 405.936 252.199 445.637 301.088 445.637Z" fill="url(#paint53_linear_187_6065)"/>
        <path d="M301.088 268.295V356.971L377.511 312.205C362.145 285.93 333.678 268.295 301.088 268.295Z" fill="url(#paint54_linear_187_6065)"/>
        <path opacity="0.3" d="M276.176 57.6753C273.465 57.6753 270.93 58.4194 268.758 59.7122C268.238 52.1412 261.952 46.1607 254.264 46.1607C252.602 46.1607 251.014 46.4583 249.529 46.9699C247.384 40.0314 240.931 34.9902 233.299 34.9902C232.723 34.9902 232.157 35.0274 231.6 35.0832C224.469 35.5297 218.536 40.3662 216.475 46.942C214.98 46.4211 213.383 46.1235 211.712 46.1235C204.024 46.1235 197.738 52.104 197.218 59.675C194.974 58.3382 192.411 57.6344 189.8 57.6381C181.768 57.6381 175.26 64.1581 175.26 72.1941C175.26 80.2302 181.768 86.7501 189.8 86.7501C190.338 86.7501 190.858 86.7222 191.387 86.6571H213.708C214.358 86.7315 215.017 86.7873 215.695 86.7873C216.28 86.7873 216.856 86.7594 217.431 86.7036H249.306C249.631 86.7222 249.956 86.7501 250.281 86.7501C250.615 86.7501 250.931 86.7222 251.256 86.7036H274.589C275.109 86.7594 275.638 86.7873 276.176 86.7873C284.208 86.7873 290.707 80.2674 290.707 72.2313C290.716 64.1953 284.208 57.6753 276.176 57.6753Z" fill="url(#paint55_linear_187_6065)"/>
    </g>
    <defs>
        <linearGradient id="paint0_linear_187_6065" x1="37190.6" y1="5001.53" x2="37139.1" y2="4602.62" gradientUnits="userSpaceOnUse">
            <stop stop-color="#7700BB"/>
            <stop offset="1" stop-color="#00008B"/>
        </linearGradient>
        <linearGradient id="paint1_linear_187_6065" x1="15.6104" y1="19519" x2="70266.1" y2="19519" gradientUnits="userSpaceOnUse">
            <stop stop-color="#7700BB"/>
            <stop offset="1"/>
        </linearGradient>
        <linearGradient id="paint2_linear_187_6065" x1="2544.64" y1="4485.39" x2="2402.43" y2="1093.41" gradientUnits="userSpaceOnUse">
            <stop stop-color="#88CFDA"/>
            <stop offset="0.0506" stop-color="#93D1D5"/>
            <stop offset="0.2502" stop-color="#BAD7C2"/>
            <stop offset="0.4481" stop-color="#D8DBB3"/>
            <stop offset="0.6414" stop-color="#EEDEA8"/>
            <stop offset="0.8279" stop-color="#FBE0A2"/>
            <stop offset="1" stop-color="#FFE1A0"/>
        </linearGradient>
        <linearGradient id="paint3_linear_187_6065" x1="466.266" y1="433.605" x2="466.266" y2="7405.86" gradientUnits="userSpaceOnUse">
            <stop stop-color="#7633FF"/>
            <stop offset="0.1585" stop-color="#7137FF"/>
            <stop offset="0.3535" stop-color="#6243FF"/>
            <stop offset="0.5676" stop-color="#4957FF"/>
            <stop offset="0.7937" stop-color="#2672FF"/>
            <stop offset="1" stop-color="#0090FF"/>
        </linearGradient>
        <linearGradient id="paint4_linear_187_6065" x1="481.698" y1="-1896" x2="481.698" y2="5076.3" gradientUnits="userSpaceOnUse">
            <stop stop-color="#7633FF"/>
            <stop offset="0.1585" stop-color="#7137FF"/>
            <stop offset="0.3535" stop-color="#6243FF"/>
            <stop offset="0.5676" stop-color="#4957FF"/>
            <stop offset="0.7937" stop-color="#2672FF"/>
            <stop offset="1" stop-color="#0090FF"/>
        </linearGradient>
        <linearGradient id="paint5_linear_187_6065" x1="496.244" y1="-419.054" x2="496.244" y2="6553.3" gradientUnits="userSpaceOnUse">
            <stop stop-color="#7633FF"/>
            <stop offset="0.1585" stop-color="#7137FF"/>
            <stop offset="0.3535" stop-color="#6243FF"/>
            <stop offset="0.5676" stop-color="#4957FF"/>
            <stop offset="0.7937" stop-color="#2672FF"/>
            <stop offset="1" stop-color="#0090FF"/>
        </linearGradient>
        <linearGradient id="paint6_linear_187_6065" x1="510.759" y1="168.409" x2="510.759" y2="7140.74" gradientUnits="userSpaceOnUse">
            <stop stop-color="#7633FF"/>
            <stop offset="0.1585" stop-color="#7137FF"/>
            <stop offset="0.3535" stop-color="#6243FF"/>
            <stop offset="0.5676" stop-color="#4957FF"/>
            <stop offset="0.7937" stop-color="#2672FF"/>
            <stop offset="1" stop-color="#0090FF"/>
        </linearGradient>
        <linearGradient id="paint7_linear_187_6065" x1="526.146" y1="-2035.95" x2="526.146" y2="4936.34" gradientUnits="userSpaceOnUse">
            <stop stop-color="#7633FF"/>
            <stop offset="0.1585" stop-color="#7137FF"/>
            <stop offset="0.3535" stop-color="#6243FF"/>
            <stop offset="0.5676" stop-color="#4957FF"/>
            <stop offset="0.7937" stop-color="#2672FF"/>
            <stop offset="1" stop-color="#0090FF"/>
        </linearGradient>
        <linearGradient id="paint8_linear_187_6065" x1="540.737" y1="-2896.92" x2="540.737" y2="4075.41" gradientUnits="userSpaceOnUse">
            <stop stop-color="#7633FF"/>
            <stop offset="0.1585" stop-color="#7137FF"/>
            <stop offset="0.3535" stop-color="#6243FF"/>
            <stop offset="0.5676" stop-color="#4957FF"/>
            <stop offset="0.7937" stop-color="#2672FF"/>
            <stop offset="1" stop-color="#0090FF"/>
        </linearGradient>
        <linearGradient id="paint9_linear_187_6065" x1="555.229" y1="-270.766" x2="555.229" y2="6701.53" gradientUnits="userSpaceOnUse">
            <stop stop-color="#7633FF"/>
            <stop offset="0.1585" stop-color="#7137FF"/>
            <stop offset="0.3535" stop-color="#6243FF"/>
            <stop offset="0.5676" stop-color="#4957FF"/>
            <stop offset="0.7937" stop-color="#2672FF"/>
            <stop offset="1" stop-color="#0090FF"/>
        </linearGradient>
        <linearGradient id="paint10_linear_187_6065" x1="570.653" y1="-1380.34" x2="570.653" y2="5591.96" gradientUnits="userSpaceOnUse">
            <stop stop-color="#7633FF"/>
            <stop offset="0.1585" stop-color="#7137FF"/>
            <stop offset="0.3535" stop-color="#6243FF"/>
            <stop offset="0.5676" stop-color="#4957FF"/>
            <stop offset="0.7937" stop-color="#2672FF"/>
            <stop offset="1" stop-color="#0090FF"/>
        </linearGradient>
        <linearGradient id="paint11_linear_187_6065" x1="585.184" y1="-493.658" x2="585.184" y2="6478.69" gradientUnits="userSpaceOnUse">
            <stop stop-color="#7633FF"/>
            <stop offset="0.1585" stop-color="#7137FF"/>
            <stop offset="0.3535" stop-color="#6243FF"/>
            <stop offset="0.5676" stop-color="#4957FF"/>
            <stop offset="0.7937" stop-color="#2672FF"/>
            <stop offset="1" stop-color="#0090FF"/>
        </linearGradient>
        <linearGradient id="paint12_linear_187_6065" x1="599.745" y1="-2384.01" x2="599.745" y2="4588.3" gradientUnits="userSpaceOnUse">
            <stop stop-color="#7633FF"/>
            <stop offset="0.1585" stop-color="#7137FF"/>
            <stop offset="0.3535" stop-color="#6243FF"/>
            <stop offset="0.5676" stop-color="#4957FF"/>
            <stop offset="0.7937" stop-color="#2672FF"/>
            <stop offset="1" stop-color="#0090FF"/>
        </linearGradient>
        <linearGradient id="paint13_linear_187_6065" x1="614.252" y1="-1615.15" x2="614.252" y2="5357.12" gradientUnits="userSpaceOnUse">
            <stop stop-color="#7633FF"/>
            <stop offset="0.1585" stop-color="#7137FF"/>
            <stop offset="0.3535" stop-color="#6243FF"/>
            <stop offset="0.5676" stop-color="#4957FF"/>
            <stop offset="0.7937" stop-color="#2672FF"/>
            <stop offset="1" stop-color="#0090FF"/>
        </linearGradient>
        <linearGradient id="paint14_linear_187_6065" x1="18141.9" y1="24734.1" x2="18141.9" y2="530.143" gradientUnits="userSpaceOnUse">
            <stop stop-color="#A1BAFF"/>
            <stop offset="0.4332" stop-color="white"/>
        </linearGradient>
        <linearGradient id="paint15_linear_187_6065" x1="16199.1" y1="13784.5" x2="16199.1" y2="-431.024" gradientUnits="userSpaceOnUse">
            <stop stop-color="#88CFDA"/>
            <stop offset="0.0506" stop-color="#93D1D5"/>
            <stop offset="0.2502" stop-color="#BAD7C2"/>
            <stop offset="0.4481" stop-color="#D8DBB3"/>
            <stop offset="0.6414" stop-color="#EEDEA8"/>
            <stop offset="0.8279" stop-color="#FBE0A2"/>
            <stop offset="1" stop-color="#FFE1A0"/>
        </linearGradient>
        <linearGradient id="paint16_linear_187_6065" x1="8543.03" y1="14810.5" x2="8543.03" y2="-4113.9" gradientUnits="userSpaceOnUse">
            <stop stop-color="#88CFDA"/>
            <stop offset="0.1838" stop-color="#98D1D2"/>
            <stop offset="0.5428" stop-color="#C2D8BE"/>
            <stop offset="1" stop-color="#FFE1A0"/>
        </linearGradient>
        <linearGradient id="paint17_linear_187_6065" x1="1227.4" y1="8067.91" x2="1227.4" y2="160.982" gradientUnits="userSpaceOnUse">
            <stop stop-color="#7633FF"/>
            <stop offset="0.1585" stop-color="#7137FF"/>
            <stop offset="0.3535" stop-color="#6243FF"/>
            <stop offset="0.5676" stop-color="#4957FF"/>
            <stop offset="0.7937" stop-color="#2672FF"/>
            <stop offset="1" stop-color="#0090FF"/>
        </linearGradient>
        <linearGradient id="paint18_linear_187_6065" x1="270.321" y1="541.759" x2="1016.25" y2="541.759" gradientUnits="userSpaceOnUse">
            <stop stop-color="#7633FF"/>
            <stop offset="0.1585" stop-color="#7137FF"/>
            <stop offset="0.3535" stop-color="#6243FF"/>
            <stop offset="0.5676" stop-color="#4957FF"/>
            <stop offset="0.7937" stop-color="#2672FF"/>
            <stop offset="1" stop-color="#0090FF"/>
        </linearGradient>
        <linearGradient id="paint19_linear_187_6065" x1="270.321" y1="566.719" x2="1016.25" y2="566.719" gradientUnits="userSpaceOnUse">
            <stop stop-color="#7633FF"/>
            <stop offset="0.1585" stop-color="#7137FF"/>
            <stop offset="0.3535" stop-color="#6243FF"/>
            <stop offset="0.5676" stop-color="#4957FF"/>
            <stop offset="0.7937" stop-color="#2672FF"/>
            <stop offset="1" stop-color="#0090FF"/>
        </linearGradient>
        <linearGradient id="paint20_linear_187_6065" x1="270.321" y1="594.874" x2="1016.25" y2="594.874" gradientUnits="userSpaceOnUse">
            <stop stop-color="#7633FF"/>
            <stop offset="0.1585" stop-color="#7137FF"/>
            <stop offset="0.3535" stop-color="#6243FF"/>
            <stop offset="0.5676" stop-color="#4957FF"/>
            <stop offset="0.7937" stop-color="#2672FF"/>
            <stop offset="1" stop-color="#0090FF"/>
        </linearGradient>
        <linearGradient id="paint21_linear_187_6065" x1="462.637" y1="3379.17" x2="14590.1" y2="3379.17" gradientUnits="userSpaceOnUse">
            <stop stop-color="#270036"/>
            <stop offset="0.5936" stop-color="#4F008B"/>
            <stop offset="1" stop-color="#4C24B1"/>
        </linearGradient>
        <linearGradient id="paint22_linear_187_6065" x1="1152.63" y1="8421.64" x2="1152.63" y2="128.617" gradientUnits="userSpaceOnUse">
            <stop stop-color="#7633FF"/>
            <stop offset="0.1585" stop-color="#7137FF"/>
            <stop offset="0.3535" stop-color="#6243FF"/>
            <stop offset="0.5676" stop-color="#4957FF"/>
            <stop offset="0.7937" stop-color="#2672FF"/>
            <stop offset="1" stop-color="#0090FF"/>
        </linearGradient>
        <linearGradient id="paint23_linear_187_6065" x1="1170.75" y1="4425.78" x2="1170.75" y2="336.328" gradientUnits="userSpaceOnUse">
            <stop stop-color="#7633FF"/>
            <stop offset="0.1585" stop-color="#7137FF"/>
            <stop offset="0.3535" stop-color="#6243FF"/>
            <stop offset="0.5676" stop-color="#4957FF"/>
            <stop offset="0.7937" stop-color="#2672FF"/>
            <stop offset="1" stop-color="#0090FF"/>
        </linearGradient>
        <linearGradient id="paint24_linear_187_6065" x1="1189.73" y1="3132.73" x2="1189.73" y2="285.32" gradientUnits="userSpaceOnUse">
            <stop stop-color="#311341"/>
            <stop offset="0.2299" stop-color="#3113C2"/>
            <stop offset="0.3479" stop-color="#2F18C5"/>
            <stop offset="0.4931" stop-color="#2927CC"/>
            <stop offset="0.6524" stop-color="#1F40D8"/>
            <stop offset="0.8219" stop-color="#1263E9"/>
            <stop offset="0.9978" stop-color="#008FFF"/>
            <stop offset="1" stop-color="#0090FF"/>
        </linearGradient>
        <linearGradient id="paint25_linear_187_6065" x1="680.864" y1="4734.36" x2="680.864" y2="-146.215" gradientUnits="userSpaceOnUse">
            <stop stop-color="#7633FF"/>
            <stop offset="0.1585" stop-color="#7137FF"/>
            <stop offset="0.3535" stop-color="#6243FF"/>
            <stop offset="0.5676" stop-color="#4957FF"/>
            <stop offset="0.7937" stop-color="#2672FF"/>
            <stop offset="1" stop-color="#0090FF"/>
        </linearGradient>
        <linearGradient id="paint26_linear_187_6065" x1="689.416" y1="5137.61" x2="689.416" y2="151.952" gradientUnits="userSpaceOnUse">
            <stop stop-color="#311341"/>
            <stop offset="0.2299" stop-color="#3113C2"/>
            <stop offset="0.3479" stop-color="#2F18C5"/>
            <stop offset="0.4931" stop-color="#2927CC"/>
            <stop offset="0.6524" stop-color="#1F40D8"/>
            <stop offset="0.8219" stop-color="#1263E9"/>
            <stop offset="0.9978" stop-color="#008FFF"/>
            <stop offset="1" stop-color="#0090FF"/>
        </linearGradient>
        <linearGradient id="paint27_linear_187_6065" x1="95.7372" y1="1813.16" x2="2831.72" y2="1813.16" gradientUnits="userSpaceOnUse">
            <stop stop-color="#7633FF"/>
            <stop offset="0.1585" stop-color="#7137FF"/>
            <stop offset="0.3535" stop-color="#6243FF"/>
            <stop offset="0.5676" stop-color="#4957FF"/>
            <stop offset="0.7937" stop-color="#2672FF"/>
            <stop offset="1" stop-color="#0090FF"/>
        </linearGradient>
        <linearGradient id="paint28_linear_187_6065" x1="851.351" y1="707.993" x2="-331.229" y2="1457.54" gradientUnits="userSpaceOnUse">
            <stop stop-color="#A1BAFF"/>
            <stop offset="0.4332" stop-color="white"/>
        </linearGradient>
        <linearGradient id="paint29_linear_187_6065" x1="1096.28" y1="12353" x2="709.467" y2="3125.68" gradientUnits="userSpaceOnUse">
            <stop stop-color="#A1BAFF"/>
            <stop offset="0.4332" stop-color="white"/>
            <stop offset="0.5794" stop-color="#FBFCFF"/>
            <stop offset="0.7123" stop-color="#F0F4FF"/>
            <stop offset="0.84" stop-color="#DEE7FF"/>
            <stop offset="0.9637" stop-color="#C4D4FF"/>
            <stop offset="1" stop-color="#BBCDFF"/>
        </linearGradient>
        <linearGradient id="paint30_linear_187_6065" x1="1872.11" y1="12447.1" x2="1485.44" y2="3219.01" gradientUnits="userSpaceOnUse">
            <stop stop-color="#A1BAFF"/>
            <stop offset="0.4332" stop-color="white"/>
            <stop offset="0.5794" stop-color="#FBFCFF"/>
            <stop offset="0.7123" stop-color="#F0F4FF"/>
            <stop offset="0.84" stop-color="#DEE7FF"/>
            <stop offset="0.9637" stop-color="#C4D4FF"/>
            <stop offset="1" stop-color="#BBCDFF"/>
        </linearGradient>
        <linearGradient id="paint31_linear_187_6065" x1="1694.07" y1="787.457" x2="2714.04" y2="5878.25" gradientUnits="userSpaceOnUse">
            <stop stop-color="#311341"/>
            <stop offset="0.6346" stop-color="#3113C2"/>
            <stop offset="0.6906" stop-color="#2F18C5"/>
            <stop offset="0.7595" stop-color="#2927CC"/>
            <stop offset="0.8351" stop-color="#1F40D8"/>
            <stop offset="0.9155" stop-color="#1263E9"/>
            <stop offset="0.999" stop-color="#008FFF"/>
            <stop offset="1" stop-color="#0090FF"/>
        </linearGradient>
        <linearGradient id="paint32_linear_187_6065" x1="64.8032" y1="942.668" x2="1463.28" y2="942.668" gradientUnits="userSpaceOnUse">
            <stop stop-color="#A1BAFF"/>
            <stop offset="0.4332" stop-color="white"/>
        </linearGradient>
        <linearGradient id="paint33_linear_187_6065" x1="72.0432" y1="484.393" x2="1855.67" y2="484.393" gradientUnits="userSpaceOnUse">
            <stop stop-color="#88CFDA"/>
            <stop offset="0.0506" stop-color="#93D1D5"/>
            <stop offset="0.2502" stop-color="#BAD7C2"/>
            <stop offset="0.4481" stop-color="#D8DBB3"/>
            <stop offset="0.6414" stop-color="#EEDEA8"/>
            <stop offset="0.8279" stop-color="#FBE0A2"/>
            <stop offset="1" stop-color="#FFE1A0"/>
        </linearGradient>
        <linearGradient id="paint34_linear_187_6065" x1="59.7832" y1="2479.59" x2="4384.74" y2="2479.59" gradientUnits="userSpaceOnUse">
            <stop stop-color="#88CFDA"/>
            <stop offset="0.0506" stop-color="#93D1D5"/>
            <stop offset="0.2502" stop-color="#BAD7C2"/>
            <stop offset="0.4481" stop-color="#D8DBB3"/>
            <stop offset="0.6414" stop-color="#EEDEA8"/>
            <stop offset="0.8279" stop-color="#FBE0A2"/>
            <stop offset="1" stop-color="#FFE1A0"/>
        </linearGradient>
        <linearGradient id="paint35_linear_187_6065" x1="567.32" y1="445.66" x2="2158.6" y2="3500.54" gradientUnits="userSpaceOnUse">
            <stop stop-color="#311341"/>
            <stop offset="0.6346" stop-color="#3113C2"/>
            <stop offset="0.6906" stop-color="#2F18C5"/>
            <stop offset="0.7595" stop-color="#2927CC"/>
            <stop offset="0.8351" stop-color="#1F40D8"/>
            <stop offset="0.9155" stop-color="#1263E9"/>
            <stop offset="0.999" stop-color="#008FFF"/>
            <stop offset="1" stop-color="#0090FF"/>
        </linearGradient>
        <linearGradient id="paint36_linear_187_6065" x1="3189.75" y1="1773.71" x2="536.019" y2="1773.71" gradientUnits="userSpaceOnUse">
            <stop stop-color="#7633FF"/>
            <stop offset="0.1585" stop-color="#7137FF"/>
            <stop offset="0.3535" stop-color="#6243FF"/>
            <stop offset="0.5676" stop-color="#4957FF"/>
            <stop offset="0.7937" stop-color="#2672FF"/>
            <stop offset="1" stop-color="#0090FF"/>
        </linearGradient>
        <linearGradient id="paint37_linear_187_6065" x1="3059.98" y1="1284.76" x2="1348.23" y2="9829" gradientUnits="userSpaceOnUse">
            <stop stop-color="#3822D1"/>
            <stop offset="0.1652" stop-color="#3527D3"/>
            <stop offset="0.3684" stop-color="#2E36DA"/>
            <stop offset="0.5916" stop-color="#214FE4"/>
            <stop offset="0.8272" stop-color="#0F72F2"/>
            <stop offset="1" stop-color="#0090FF"/>
        </linearGradient>
        <linearGradient id="paint38_linear_187_6065" x1="2297.42" y1="485.05" x2="567.469" y2="485.05" gradientUnits="userSpaceOnUse">
            <stop stop-color="#88CFDA"/>
            <stop offset="0.0506" stop-color="#93D1D5"/>
            <stop offset="0.2502" stop-color="#BAD7C2"/>
            <stop offset="0.4481" stop-color="#D8DBB3"/>
            <stop offset="0.6414" stop-color="#EEDEA8"/>
            <stop offset="0.8279" stop-color="#FBE0A2"/>
            <stop offset="1" stop-color="#FFE1A0"/>
        </linearGradient>
        <linearGradient id="paint39_linear_187_6065" x1="472.003" y1="467.634" x2="1856.42" y2="467.634" gradientUnits="userSpaceOnUse">
            <stop stop-color="#7633FF"/>
            <stop offset="0.1585" stop-color="#7137FF"/>
            <stop offset="0.3535" stop-color="#6243FF"/>
            <stop offset="0.5676" stop-color="#4957FF"/>
            <stop offset="0.7937" stop-color="#2672FF"/>
            <stop offset="1" stop-color="#0090FF"/>
        </linearGradient>
        <linearGradient id="paint40_linear_187_6065" x1="2086.29" y1="313.562" x2="2908.87" y2="6472.22" gradientUnits="userSpaceOnUse">
            <stop stop-color="#7633FF"/>
            <stop offset="0.1585" stop-color="#7137FF"/>
            <stop offset="0.3535" stop-color="#6243FF"/>
            <stop offset="0.5676" stop-color="#4957FF"/>
            <stop offset="0.7937" stop-color="#2672FF"/>
            <stop offset="1" stop-color="#0090FF"/>
        </linearGradient>
        <linearGradient id="paint41_linear_187_6065" x1="-813.817" y1="2284.05" x2="5045.64" y2="1460.19" gradientUnits="userSpaceOnUse">
            <stop stop-color="#5E60FF"/>
            <stop offset="0.1814" stop-color="#5963FF"/>
            <stop offset="0.4044" stop-color="#4A6AFF"/>
            <stop offset="0.6491" stop-color="#3177FF"/>
            <stop offset="0.9079" stop-color="#0E89FF"/>
            <stop offset="1" stop-color="#0090FF"/>
        </linearGradient>
        <linearGradient id="paint42_linear_187_6065" x1="1308.1" y1="2128.74" x2="2898.61" y2="3135.59" gradientUnits="userSpaceOnUse">
            <stop stop-color="#591DDB"/>
            <stop offset="0.1609" stop-color="#5522DD"/>
            <stop offset="0.3589" stop-color="#4931E1"/>
            <stop offset="0.5762" stop-color="#364AE9"/>
            <stop offset="0.8058" stop-color="#1B6DF4"/>
            <stop offset="1" stop-color="#0090FF"/>
        </linearGradient>
        <linearGradient id="paint43_linear_187_6065" x1="2280.6" y1="377.785" x2="2280.6" y2="10523.4" gradientUnits="userSpaceOnUse">
            <stop stop-color="#311341"/>
            <stop offset="0.2299" stop-color="#3113C2"/>
            <stop offset="0.3479" stop-color="#2F18C5"/>
            <stop offset="0.4931" stop-color="#2927CC"/>
            <stop offset="0.6524" stop-color="#1F40D8"/>
            <stop offset="0.8219" stop-color="#1263E9"/>
            <stop offset="0.9978" stop-color="#008FFF"/>
            <stop offset="1" stop-color="#0090FF"/>
        </linearGradient>
        <linearGradient id="paint44_linear_187_6065" x1="1388.82" y1="110.955" x2="1388.82" y2="1988.31" gradientUnits="userSpaceOnUse">
            <stop stop-color="#270036"/>
            <stop offset="0.5936" stop-color="#4F008B"/>
            <stop offset="1" stop-color="#4C24B1"/>
        </linearGradient>
        <linearGradient id="paint45_linear_187_6065" x1="1366.71" y1="110.955" x2="1366.71" y2="1988.31" gradientUnits="userSpaceOnUse">
            <stop stop-color="#270036"/>
            <stop offset="0.5936" stop-color="#4F008B"/>
            <stop offset="1" stop-color="#4C24B1"/>
        </linearGradient>
        <linearGradient id="paint46_linear_187_6065" x1="162.464" y1="1173.81" x2="7872.71" y2="1173.81" gradientUnits="userSpaceOnUse">
            <stop stop-color="#311341"/>
            <stop offset="0.2299" stop-color="#3113C2"/>
            <stop offset="0.3479" stop-color="#2F18C5"/>
            <stop offset="0.4931" stop-color="#2927CC"/>
            <stop offset="0.6524" stop-color="#1F40D8"/>
            <stop offset="0.8219" stop-color="#1263E9"/>
            <stop offset="0.9978" stop-color="#008FFF"/>
            <stop offset="1" stop-color="#0090FF"/>
        </linearGradient>
        <linearGradient id="paint47_linear_187_6065" x1="126.852" y1="2286.08" x2="1312.96" y2="2286.08" gradientUnits="userSpaceOnUse">
            <stop stop-color="#7633FF"/>
            <stop offset="0.1106" stop-color="#6640FF"/>
            <stop offset="0.5243" stop-color="#2F6BFF"/>
            <stop offset="0.8331" stop-color="#0D86FF"/>
            <stop offset="1" stop-color="#0090FF"/>
        </linearGradient>
        <linearGradient id="paint48_linear_187_6065" x1="144.306" y1="1067.34" x2="2769.86" y2="1067.34" gradientUnits="userSpaceOnUse">
            <stop stop-color="#27004F"/>
            <stop offset="1" stop-color="#004C81"/>
        </linearGradient>
        <linearGradient id="paint49_linear_187_6065" x1="92.6836" y1="1283.8" x2="2651.15" y2="1283.8" gradientUnits="userSpaceOnUse">
            <stop stop-color="#27004F"/>
            <stop offset="1" stop-color="#004C81"/>
        </linearGradient>
        <linearGradient id="paint50_linear_187_6065" x1="144.302" y1="807.25" x2="2729.86" y2="807.25" gradientUnits="userSpaceOnUse">
            <stop stop-color="#27004F"/>
            <stop offset="1" stop-color="#004C81"/>
        </linearGradient>
        <linearGradient id="paint51_linear_187_6065" x1="129.347" y1="2586.05" x2="4646.24" y2="2586.05" gradientUnits="userSpaceOnUse">
            <stop stop-color="#A1BAFF"/>
            <stop offset="0.4332" stop-color="white"/>
        </linearGradient>
        <linearGradient id="paint52_linear_187_6065" x1="5750.19" y1="954.542" x2="-787.331" y2="1643.88" gradientUnits="userSpaceOnUse">
            <stop stop-color="#A1BAFF"/>
            <stop offset="0.4332" stop-color="white"/>
        </linearGradient>
        <linearGradient id="paint53_linear_187_6065" x1="213.098" y1="9135.83" x2="17916.5" y2="9135.83" gradientUnits="userSpaceOnUse">
            <stop stop-color="#270036"/>
            <stop offset="0.5936" stop-color="#4F008B"/>
            <stop offset="1" stop-color="#4C24B1"/>
        </linearGradient>
        <linearGradient id="paint54_linear_187_6065" x1="-743.77" y1="9003.27" x2="5734.05" y2="2536.6" gradientUnits="userSpaceOnUse">
            <stop stop-color="#7633FF"/>
            <stop offset="0.1585" stop-color="#7137FF"/>
            <stop offset="0.3535" stop-color="#6243FF"/>
            <stop offset="0.5676" stop-color="#4957FF"/>
            <stop offset="0.7937" stop-color="#2672FF"/>
            <stop offset="1" stop-color="#0090FF"/>
        </linearGradient>
        <linearGradient id="paint55_linear_187_6065" x1="176.414" y1="2625.57" x2="11720.6" y2="2625.57" gradientUnits="userSpaceOnUse">
            <stop stop-color="#A1BAFF"/>
            <stop offset="0.0888" stop-color="#ACC2FF"/>
            <stop offset="0.4988" stop-color="#D9E3FF"/>
            <stop offset="0.816" stop-color="#F5F7FF"/>
            <stop offset="1" stop-color="white"/>
        </linearGradient>
        <clipPath id="clip0_187_6065">
            <rect width="727" height="479" fill="white"/>
        </clipPath>
    </defs>
</svg>