<svg xmlns="http://www.w3.org/2000/svg" width="698" height="524" viewBox="0 0 698 524" fill="none">
  <path d="M645.101 311.99C504.82 434.134 605.707 528.961 271.758 504.088C115.415 492.429 37.9802 373.481 20.0503 264.795C-2.181 130.048 82.879 34.3919 317.049 34.3919C422.683 34.3919 517.986 2.489 584.523 45.4395C677.27 105.333 714.115 251.904 645.101 311.99Z" fill="url(#paint0_linear_187_6922)"/>
  <path d="M222.828 62.6267H583.424V423.567H222.828V62.6267Z" fill="url(#paint1_radial_187_6922)"/>
  <path d="M603.779 159.113C606.53 159.113 608.761 156.88 608.761 154.126C608.761 151.372 606.53 149.139 603.779 149.139C601.027 149.139 598.797 151.372 598.797 154.126C598.797 156.88 601.027 159.113 603.779 159.113Z" fill="#B3EFFF"/>
  <path d="M156.518 123.219C159.27 123.219 161.5 120.986 161.5 118.232C161.5 115.478 159.27 113.245 156.518 113.245C153.767 113.245 151.536 115.478 151.536 118.232C151.536 120.986 153.767 123.219 156.518 123.219Z" fill="#B3EFFF"/>
  <path d="M478.828 116.066C495.859 133.192 523.517 133.262 540.627 116.223C557.737 99.1844 557.807 71.491 540.784 54.3649C523.762 37.2388 496.095 37.169 478.985 54.2077C461.884 71.2464 461.814 98.9398 478.828 116.066Z" fill="url(#paint2_linear_187_6922)"/>
  <path d="M233.219 79.3424C239.272 79.3424 244.178 74.4314 244.178 68.3734C244.178 62.3153 239.272 57.4043 233.219 57.4043C227.167 57.4043 222.261 62.3153 222.261 68.3734C222.261 74.4314 227.167 79.3424 233.219 79.3424Z" fill="url(#paint3_linear_187_6922)"/>
  <path opacity="0.6" d="M57.2883 187.182C61.8275 187.182 65.5072 183.498 65.5072 178.955C65.5072 174.411 61.8275 170.728 57.2883 170.728C52.7491 170.728 49.0693 174.411 49.0693 178.955C49.0693 183.498 52.7491 187.182 57.2883 187.182Z" fill="url(#paint4_linear_187_6922)"/>
  <path d="M375.664 79.3424C378.415 79.3424 380.646 77.1097 380.646 74.3556C380.646 71.6015 378.415 69.3689 375.664 69.3689C372.912 69.3689 370.682 71.6015 370.682 74.3556C370.682 77.1097 372.912 79.3424 375.664 79.3424Z" fill="#125CAE"/>
  <path d="M301.955 71.5696L303.002 73.7005L305.349 74.0411L303.647 75.6917L304.049 78.0322L301.955 76.9318L299.861 78.0322L300.253 75.6917L298.561 74.0411L300.908 73.7005L301.955 71.5696Z" fill="white"/>
  <path opacity="0.4" d="M90.1645 125.725L91.2115 127.856L93.5586 128.197L91.8572 129.856L92.2585 132.188L90.1645 131.087L88.0618 132.188L88.4632 129.856L86.7705 128.197L89.1175 127.856L90.1645 125.725Z" fill="white"/>
  <path d="M52.8042 252.865L53.8512 254.996L56.1982 255.337L54.5056 256.996L54.8982 259.328L52.8042 258.227L50.7102 259.328L51.1115 256.996L49.4102 255.337L51.7572 254.996L52.8042 252.865ZM649.934 209.88L650.982 212.01L653.328 212.351L651.636 214.01L652.029 216.342L649.934 215.242L647.841 216.342L648.242 214.01L646.54 212.351L648.888 212.01L649.934 209.88ZM617.024 96.1541L618.071 98.285L620.418 98.6256L618.725 100.285L619.127 102.617L617.024 101.516L614.93 102.617L615.331 100.285L613.63 98.6256L615.977 98.285L617.024 96.1541Z" fill="white"/>
  <path d="M272.604 320.487L555.014 178.186L305.043 386.572" fill="url(#paint5_linear_187_6922)"/>
  <path d="M426.033 262.393L555.015 178.186L399.466 256.874L426.033 262.393Z" fill="url(#paint6_linear_187_6922)"/>
  <path d="M160.017 471.53C146.894 481.294 115.842 490.246 115.842 490.246C115.842 490.246 118.329 488.822 122.412 486.805C126.495 484.779 129.881 480.499 129.881 480.499C129.881 480.499 121.539 485.591 109.944 489.512C98.3571 493.433 82.8528 496.28 82.8528 496.28C82.8528 496.28 86.0025 494.752 91.5255 491.136C97.0571 487.521 106.559 481.224 106.559 481.224C106.559 481.224 82.8441 494.228 46.5917 496.726C32.4049 497.704 9.20508 502.787 9.20508 502.787C9.20508 502.787 20.4167 493.11 25.7477 487.53C34.2197 478.674 44.0702 464.43 51.7918 455.435C63.2914 442.038 86.9012 418.475 86.9012 418.475L82.1548 420.606C77.4084 422.737 71.6674 425.025 71.6674 425.025C71.6674 425.025 95.4081 402.371 113.076 395.541C132.987 387.847 159.554 391.358 159.554 391.358C159.554 391.358 161.893 402.729 170.583 417.453C179.569 432.667 186.96 438.867 186.96 438.867C186.96 438.867 180.119 456.579 160.017 471.53Z" fill="url(#paint7_linear_187_6922)"/>
  <path d="M163.183 458.378C153.324 465.714 129.985 472.447 129.985 472.447C129.985 472.447 131.852 471.382 134.923 469.862C137.994 468.342 140.533 465.12 140.533 465.12C140.533 465.12 134.26 468.945 125.553 471.888C116.845 474.831 105.197 476.98 105.197 476.98C105.197 476.98 107.562 475.827 111.715 473.111C115.868 470.395 123.014 465.661 123.014 465.661C123.014 465.661 105.188 475.434 77.9402 477.312C67.2783 478.045 49.8457 481.862 49.8457 481.862C49.8457 481.862 58.274 474.587 62.2788 470.395C68.6481 463.74 76.0469 453.042 81.8577 446.273C90.5042 436.204 108.242 418.501 108.242 418.501L104.674 420.099C101.105 421.698 96.7862 423.418 96.7862 423.418C96.7862 423.418 114.629 406.397 127.908 401.262C142.872 395.48 162.843 398.118 162.843 398.118C162.843 398.118 164.597 406.668 171.132 417.724C177.885 429.165 183.443 433.811 183.443 433.811C183.443 433.811 178.286 447.138 163.183 458.378Z" fill="url(#paint8_linear_187_6922)"/>
  <path d="M178.121 365.752C179.622 363.49 221.485 318.583 272.369 292.235C323.253 265.886 346.313 263.633 346.313 263.633C346.313 263.633 359.095 272.663 371.877 296.252C384.659 319.841 388.42 329.369 387.417 332.382C386.413 335.395 336.785 389.087 282.385 411.419C227.993 433.75 221.729 435.007 221.729 435.007C221.729 435.007 214.958 434.256 207.193 422.466C199.428 410.676 181.376 381.315 179.369 374.791C177.362 368.267 178.121 365.752 178.121 365.752Z" fill="url(#paint9_linear_187_6922)"/>
  <path d="M428.529 260.873C425.518 256.612 421.514 255.852 397.197 256.105C372.881 256.358 347.569 264.384 347.569 264.384L347.857 264.856C351.626 268.009 361.747 277.554 371.886 296.252C381.51 314.007 386.012 323.797 387.233 328.836L388.184 330.373L392.442 326.356C396.7 322.339 414.246 296.497 420.763 284.453C427.281 272.419 431.539 265.135 428.529 260.873Z" fill="url(#paint10_linear_187_6922)"/>
  <path d="M223.744 434.248L195.92 492.962C195.92 492.962 223.238 481.67 255.075 460.596C286.913 439.523 289.417 436.256 289.417 436.256L297.941 404.144C297.933 404.144 246.804 427.724 223.744 434.248Z" fill="url(#paint11_linear_187_6922)"/>
  <path d="M240.531 311.806L211.206 305.789C211.206 305.789 185.389 316.575 163.83 330.627C142.27 344.679 121.217 360.486 121.217 360.486L180.119 363.499C180.128 363.49 221.738 320.837 240.531 311.806Z" fill="url(#paint12_linear_187_6922)"/>
  <path d="M207.193 422.458C199.419 410.668 181.376 381.306 179.369 374.782C178.819 373.01 178.488 371.542 178.278 370.328L163.079 381.551C163.079 381.551 162.076 392.59 175.608 413.165C189.141 433.741 196.164 440.763 199.419 440.509C202.673 440.256 216.712 432.981 216.712 432.981L216.424 432.51C213.885 430.737 210.639 427.68 207.193 422.458Z" fill="url(#paint13_linear_187_6922)"/>
  <path d="M164.082 388.083L159.571 391.341C159.571 391.341 159.074 398.362 169.343 415.427C179.621 432.492 185.886 438.763 188.643 439.016C191.4 439.269 193.407 436.754 193.407 436.754C193.407 436.754 169.343 409.908 164.082 388.083Z" fill="url(#paint14_linear_187_6922)"/>
  <path d="M258.835 350.949L236.273 358.73C236.273 358.73 201.294 378.153 189.899 385.079C175.608 393.76 133.754 421.462 133.754 421.462L135.508 425.226L239.283 363.254L262.09 354.469L258.835 350.949Z" fill="url(#paint15_linear_187_6922)"/>
  <path d="M135.508 425.217L192.657 398.869C192.657 398.869 214.609 386.31 221.737 381.804C232.041 375.297 262.09 354.46 262.09 354.46L238.28 363.49L135.508 425.217Z" fill="url(#paint16_linear_187_6922)"/>
  <path d="M361.607 138.432L367.122 136.17C367.122 136.17 368.509 136.808 369.879 139.934C371.632 143.952 371.885 146.711 371.885 146.711L366.371 149.724C366.363 149.724 363.605 142.196 361.607 138.432Z" fill="black"/>
  <path d="M310.968 188.116L367.366 153.995C367.366 153.995 368.038 148.641 366.031 143.96C364.025 139.279 361.686 137.934 361.686 137.934L289.164 170.807" fill="url(#paint17_linear_187_6922)"/>
  <path d="M285.482 170.632C285.482 170.632 274.619 182.588 272.115 195.635C269.611 208.683 269.855 230.507 269.105 237.791C268.355 245.066 264.594 258.62 262.334 264.891C260.075 271.161 259.324 279.947 259.324 279.947C259.324 279.947 275.116 281.702 292.662 279.694C310.208 277.685 316.473 275.432 316.473 275.432C316.473 275.432 315.47 254.856 313.629 248.166C311.788 241.477 311.29 239.136 311.29 239.136C311.29 239.136 311.962 236.63 313.629 232.114C315.304 227.599 323.654 211.539 322.319 205.355C320.984 199.164 317.642 190.133 314.798 187.12C311.953 184.107 310.784 183.609 310.784 183.609C310.784 183.609 304.267 174.239 299.756 169.889C295.245 165.54 289.731 166.038 289.731 166.038L285.482 170.632Z" fill="url(#paint18_linear_187_6922)"/>
  <path opacity="0.5" d="M289.67 210.543C289.67 210.543 292.593 219.076 297.444 224.761C302.286 230.446 312.233 236.307 312.233 236.307L313.646 232.115L290.342 210.552" fill="url(#paint19_linear_187_6922)"/>
  <path d="M308.455 180.335C306.151 177.208 302.574 172.579 299.773 169.881C295.263 165.532 289.748 166.029 289.748 166.029L285.543 170.571C288.562 172.422 296.013 173.793 300.777 176.571C303.674 178.256 306.317 179.479 308.455 180.335Z" fill="url(#paint20_linear_187_6922)"/>
  <path d="M288.413 246.158C288.413 246.158 293.762 245.992 301.448 244.149C309.135 242.306 310.47 241.136 310.47 241.136L308.795 247.992C308.795 247.992 304.947 250.664 299.433 251.171C293.919 251.668 287.898 251.843 287.898 251.843L288.413 246.158Z" fill="url(#paint21_linear_187_6922)"/>
  <path d="M264.35 280.279C264.35 280.279 265.85 288.305 271.033 291.318C276.216 294.331 281.224 296.671 281.224 296.671L304.956 314.741L267.36 329.963C267.36 329.963 272.202 341.334 276.216 347.028C280.229 352.713 283.065 355.394 283.065 354.888C283.065 354.381 306.797 343.342 319.492 338.495C332.195 333.648 338.538 330.801 340.885 325.954C343.224 321.107 338.215 315.588 335.868 311.239C333.53 306.889 317.651 284.48 314.815 281.301C311.979 278.122 309.632 277.117 309.632 277.117C309.632 277.117 283.562 282.122 264.35 280.279Z" fill="black"/>
  <path d="M267.352 329.954L257.161 329.788L245.295 335.142L250.312 346.853L252.65 345.351C252.65 345.351 253.819 356.556 257.161 364.084C260.503 371.612 267.858 377.97 269.524 377.804C271.199 377.638 272.534 374.957 272.534 374.957C272.534 374.957 266.689 365.088 267.858 359.569C269.027 354.049 271.531 345.185 271.531 345.185L273.372 343.176C273.372 343.168 267.692 332.801 267.352 329.954Z" fill="url(#paint22_linear_187_6922)"/>
  <path d="M267.352 329.954L259.656 329.832C260.04 331.727 260.738 334.661 261.506 335.648C262.553 337.002 268.713 339.159 271.897 344.783L273.372 343.176C273.372 343.168 267.692 332.801 267.352 329.954Z" fill="white"/>
  <path d="M269.524 377.795C269.978 377.752 270.405 377.516 270.789 377.21C267.587 375.105 264.219 371.175 261 366.922C256.323 360.73 255.983 348.023 255.32 345.342C254.762 343.115 251.315 335.447 250.172 332.932L245.295 335.133L250.312 346.844L252.65 345.342C252.65 345.342 253.819 356.547 257.161 364.075C260.503 371.603 267.858 377.961 269.524 377.795ZM296.807 166.536C296.807 166.536 296.31 162.274 296.057 160.51C295.804 158.755 296.807 149.724 301.693 146.083C306.579 142.441 315.104 142.065 320.243 144.58C325.382 147.087 330.015 149.978 331.018 151.733C332.021 153.488 332.519 156.755 332.144 157.759C331.768 158.763 331.14 158.763 331.14 158.763L325.879 154.37C325.879 154.37 321.996 158.388 321.866 159.392C321.743 160.396 320.487 166.038 320.487 166.038C320.487 166.038 318.105 165.916 318.105 165.54C318.105 165.165 315.723 158.519 313.969 158.763C312.216 159.017 309.877 158.51 308.83 162.527C308.534 163.68 307.949 166.545 307.949 166.545L300.175 169.68L296.807 166.536Z" fill="black"/>
  <path d="M325.887 154.37C325.887 154.37 322.005 158.388 321.874 159.392C321.752 160.396 320.495 166.038 320.495 166.038C320.495 166.038 318.113 165.916 318.113 165.54C318.113 165.165 315.732 158.519 313.978 158.763C312.224 159.016 309.886 158.51 308.839 162.527C308.542 163.68 307.958 166.545 307.958 166.545L300.184 169.68L310.462 183.522L312.468 182.684C312.468 182.684 320.652 185.444 321.412 185.356C322.162 185.269 322.999 181.758 322.999 181.426C322.999 181.094 324.422 180.754 325.006 180.588C325.591 180.422 324.84 179.164 324.84 179.164L326.263 178.911L326.76 175.898C326.76 175.898 327.842 176.396 328.182 176.396C328.514 176.396 329.857 175.811 329.857 175.811L328.522 166.274L330.023 164.85L330.608 158.492L330.459 158.161L325.887 154.37Z" fill="url(#paint23_linear_187_6922)"/>
  <path d="M289.749 209.687C289.749 209.687 291.921 217.713 311.474 230.927C331.027 244.14 344.062 252 348.573 254.515C353.084 257.022 359.933 263.214 359.933 263.214C359.933 263.214 363.78 258.865 365.944 254.847C368.117 250.83 368.614 248.821 368.614 248.821C368.614 248.821 344.551 232.263 337.361 226.577C330.172 220.892 320.487 209.347 319.484 207.006C318.48 204.666 318.314 189.111 311.125 185.094C303.936 181.077 295.917 185.094 292.41 193.627C288.903 202.159 289.749 209.687 289.749 209.687Z" fill="url(#paint24_linear_187_6922)"/>
  <path d="M362.228 260L368.248 262.506C368.248 262.506 370.63 260.376 371.886 256.734C373.143 253.092 373.64 251.468 373.64 251.468L368.623 248.83C368.623 248.83 364.487 258.114 362.228 260Z" fill="black"/>
  <path d="M373.639 252.472C373.639 252.472 382.163 251.468 384.292 251.468C386.421 251.468 390.557 252.725 394.195 254.35C397.834 255.974 400.591 258.489 400.591 259.118C400.591 259.747 399.962 260.751 397.956 260.376C395.949 260 387.8 258.245 386.421 258.367C385.043 258.489 378.403 262.009 376.265 262.009C374.128 262.009 370.245 260.507 370.245 260.507C370.245 260.507 373.639 254.35 373.639 252.472Z" fill="url(#paint25_linear_187_6922)"/>
  <path d="M367.122 136.179C367.122 136.179 371.136 134.258 373.308 133.087C375.481 131.917 380.323 129.411 384.005 127.9C387.678 126.398 392.529 123.716 393.027 125.053C393.524 126.389 383.499 132.249 383.499 132.249C383.499 132.249 386.841 136.266 386.841 136.93C386.841 137.602 383.333 143.454 383.333 143.454C383.333 143.454 380.585 144.449 379.66 144.292C378.735 144.135 376.484 142.283 376.484 142.283L371.467 143.786C371.467 143.786 368.789 137.594 367.122 136.179Z" fill="url(#paint26_linear_187_6922)"/>
  <path d="M204.741 108.66C205.695 108.66 206.469 107.886 206.469 106.931C206.469 105.976 205.695 105.202 204.741 105.202C203.787 105.202 203.014 105.976 203.014 106.931C203.014 107.886 203.787 108.66 204.741 108.66Z" fill="white"/>
  <path d="M267.43 158.789C267.43 159.261 267.046 159.645 266.575 159.645C266.104 159.645 265.72 159.261 265.72 158.789C265.72 158.318 266.104 157.934 266.575 157.934C267.046 157.934 267.43 158.318 267.43 158.789ZM165.897 173.392C165.903 173.702 165.848 174.01 165.733 174.298C165.619 174.586 165.449 174.848 165.232 175.07C165.015 175.291 164.756 175.467 164.471 175.587C164.185 175.707 163.878 175.769 163.569 175.769C163.259 175.769 162.952 175.707 162.667 175.587C162.381 175.467 162.122 175.292 161.905 175.07C161.689 174.849 161.518 174.587 161.403 174.299C161.289 174.01 161.233 173.702 161.239 173.392C161.251 172.782 161.501 172.2 161.937 171.773C162.372 171.345 162.958 171.105 163.568 171.105C164.178 171.105 164.764 171.345 165.199 171.772C165.635 172.2 165.885 172.781 165.897 173.392ZM103.243 162.536C103.243 163.012 103.054 163.469 102.718 163.805C102.382 164.142 101.926 164.331 101.45 164.331C100.975 164.331 100.519 164.142 100.182 163.805C99.8461 163.469 99.6572 163.012 99.6572 162.536C99.6572 161.54 100.46 160.737 101.455 160.737C102.44 160.746 103.243 161.549 103.243 162.536ZM259.866 111.507C259.866 112.407 259.133 113.14 258.234 113.14C257.335 113.14 256.603 112.407 256.603 111.507C256.603 110.608 257.335 109.874 258.234 109.874C259.141 109.874 259.866 110.608 259.866 111.507Z" fill="white"/>
  <path d="M570.598 95.6824C571.778 95.6824 572.735 94.7244 572.735 93.5427C572.735 92.361 571.778 91.4031 570.598 91.4031C569.417 91.4031 568.46 92.361 568.46 93.5427C568.46 94.7244 569.417 95.6824 570.598 95.6824Z" fill="white"/>
  <path d="M648.25 157.785C648.25 158.37 647.779 158.842 647.195 158.842C646.61 158.842 646.139 158.37 646.139 157.785C646.139 157.2 646.61 156.728 647.195 156.728C647.779 156.728 648.25 157.2 648.25 157.785ZM522.471 175.872C522.471 177.47 521.179 178.763 519.583 178.763C517.986 178.763 516.695 177.47 516.695 175.872C516.695 174.274 517.986 172.981 519.583 172.981C521.179 172.981 522.471 174.274 522.471 175.872ZM444.862 162.423C444.862 163.654 443.867 164.65 442.637 164.65C441.407 164.65 440.412 163.654 440.412 162.423C440.412 161.191 441.407 160.196 442.637 160.196C443.226 160.198 443.791 160.433 444.208 160.85C444.624 161.268 444.86 161.833 444.862 162.423ZM638.888 99.2107C638.888 100.329 637.981 101.237 636.864 101.237C635.747 101.237 634.84 100.329 634.84 99.2107C634.84 98.0928 635.747 97.1846 636.864 97.1846C637.981 97.1846 638.888 98.0928 638.888 99.2107Z" fill="white"/>
  <path d="M477.196 353.097C478.377 353.097 479.334 352.139 479.334 350.958C479.334 349.776 478.377 348.818 477.196 348.818C476.016 348.818 475.059 349.776 475.059 350.958C475.059 352.139 476.016 353.097 477.196 353.097Z" fill="white"/>
  <path d="M554.858 415.2C554.858 415.785 554.387 416.257 553.802 416.257C553.217 416.257 552.746 415.785 552.746 415.2C552.746 414.615 553.217 414.143 553.802 414.143C554.387 414.135 554.858 414.615 554.858 415.2ZM429.078 433.287C429.078 434.885 427.787 436.178 426.19 436.178C424.593 436.178 423.302 434.885 423.302 433.287C423.302 431.689 424.593 430.396 426.19 430.396C427.787 430.396 429.078 431.689 429.078 433.287ZM351.469 419.838C351.469 421.069 350.475 422.065 349.244 422.065C348.014 422.065 347.02 421.069 347.02 419.838C347.02 418.606 348.014 417.611 349.244 417.611C350.475 417.611 351.469 418.606 351.469 419.838ZM545.496 356.626C545.496 357.744 544.588 358.652 543.472 358.652C542.355 358.652 541.447 357.744 541.447 356.626C541.447 355.508 542.355 354.6 543.472 354.6C544.588 354.6 545.496 355.508 545.496 356.626Z" fill="white"/>
  <path d="M389.947 451.181C390.587 451.181 391.107 450.661 391.107 450.02C391.107 449.378 390.587 448.858 389.947 448.858C389.306 448.858 388.786 449.378 388.786 450.02C388.786 450.661 389.306 451.181 389.947 451.181Z" fill="white"/>
  <path d="M432.166 484.953C432.166 485.106 432.106 485.253 431.998 485.361C431.89 485.469 431.743 485.53 431.591 485.53C431.438 485.53 431.291 485.469 431.183 485.361C431.075 485.253 431.015 485.106 431.015 484.953C431.015 484.63 431.268 484.377 431.591 484.377C431.913 484.377 432.166 484.63 432.166 484.953ZM363.78 494.787C363.78 495.204 363.614 495.604 363.32 495.899C363.025 496.193 362.626 496.359 362.209 496.359C361.793 496.359 361.393 496.193 361.099 495.899C360.804 495.604 360.639 495.204 360.639 494.787C360.639 493.914 361.346 493.215 362.209 493.215C363.073 493.215 363.78 493.914 363.78 494.787ZM321.577 487.468C321.577 488.132 321.036 488.674 320.373 488.674C319.71 488.674 319.169 488.132 319.169 487.468C319.169 486.805 319.71 486.263 320.373 486.263C321.036 486.263 321.577 486.805 321.577 487.468ZM427.08 453.103C427.08 453.714 426.591 454.203 425.98 454.203C425.37 454.203 424.881 453.714 424.881 453.103C424.881 452.492 425.37 452.002 425.98 452.002C426.582 452.002 427.08 452.492 427.08 453.103Z" fill="white"/>
  <path d="M142.505 260.053C143.146 260.053 143.666 259.533 143.666 258.891C143.666 258.25 143.146 257.729 142.505 257.729C141.864 257.729 141.345 258.25 141.345 258.891C141.345 259.533 141.864 260.053 142.505 260.053Z" fill="white"/>
  <path d="M184.735 293.824C184.738 293.902 184.725 293.979 184.698 294.052C184.67 294.124 184.628 294.19 184.575 294.246C184.521 294.302 184.457 294.347 184.385 294.377C184.314 294.408 184.237 294.423 184.16 294.423C184.082 294.424 184.006 294.408 183.934 294.378C183.863 294.347 183.798 294.303 183.745 294.247C183.691 294.191 183.649 294.125 183.621 294.052C183.594 293.98 183.581 293.903 183.584 293.825C183.59 293.676 183.653 293.535 183.76 293.432C183.867 293.329 184.01 293.271 184.159 293.271C184.308 293.271 184.451 293.328 184.558 293.431C184.666 293.534 184.729 293.675 184.735 293.824ZM116.34 303.658C116.34 304.075 116.174 304.475 115.88 304.769C115.585 305.064 115.186 305.23 114.769 305.23C114.352 305.23 113.953 305.064 113.658 304.769C113.364 304.475 113.199 304.075 113.199 303.658C113.199 303.241 113.364 302.841 113.658 302.546C113.953 302.252 114.352 302.086 114.769 302.086C115.186 302.086 115.585 302.252 115.88 302.546C116.174 302.841 116.34 303.241 116.34 303.658ZM74.1454 296.348C74.1454 297.012 73.6045 297.553 72.9414 297.553C72.2783 297.553 71.7373 297.012 71.7373 296.348C71.7373 295.684 72.2783 295.143 72.9414 295.143C73.6045 295.143 74.1454 295.676 74.1454 296.348ZM179.639 261.974C179.639 262.585 179.151 263.074 178.54 263.074C177.929 263.074 177.441 262.585 177.441 261.974C177.441 261.362 177.929 260.873 178.54 260.873C179.151 260.873 179.639 261.371 179.639 261.974Z" fill="white"/>
  <path d="M581.835 233.355C582.476 233.355 582.996 232.835 582.996 232.193C582.996 231.552 582.476 231.031 581.835 231.031C581.194 231.031 580.675 231.552 580.675 232.193C580.675 232.835 581.194 233.355 581.835 233.355Z" fill="white"/>
  <path d="M624.064 267.126C624.064 267.441 623.811 267.703 623.488 267.703C623.165 267.703 622.912 267.45 622.912 267.126C622.912 266.812 623.165 266.55 623.488 266.55C623.811 266.55 624.064 266.803 624.064 267.126ZM555.669 276.96C555.669 277.377 555.503 277.777 555.209 278.072C554.914 278.367 554.515 278.532 554.098 278.532C553.682 278.532 553.282 278.367 552.988 278.072C552.693 277.777 552.528 277.377 552.528 276.96C552.528 276.543 552.693 276.143 552.988 275.849C553.282 275.554 553.682 275.388 554.098 275.388C554.515 275.388 554.914 275.554 555.209 275.849C555.503 276.143 555.669 276.543 555.669 276.96ZM513.475 269.65C513.475 270.314 512.934 270.856 512.27 270.856C511.607 270.856 511.066 270.314 511.066 269.65C511.066 268.987 511.607 268.445 512.27 268.445C512.934 268.436 513.475 268.978 513.475 269.65ZM618.968 235.276C618.968 235.887 618.48 236.376 617.869 236.376C617.258 236.376 616.77 235.887 616.77 235.276C616.77 234.665 617.258 234.176 617.869 234.176C618.48 234.176 618.968 234.673 618.968 235.276Z" fill="white"/>
  <path d="M454.695 156.336C455.336 156.336 455.855 155.815 455.855 155.174C455.855 154.532 455.336 154.012 454.695 154.012C454.054 154.012 453.534 154.532 453.534 155.174C453.534 155.815 454.054 156.336 454.695 156.336Z" fill="white"/>
  <path d="M496.923 190.107C496.923 190.422 496.67 190.684 496.347 190.684C496.025 190.684 495.772 190.43 495.772 190.107C495.772 189.793 496.025 189.531 496.347 189.531C496.67 189.531 496.923 189.784 496.923 190.107ZM428.528 199.941C428.528 200.358 428.363 200.758 428.068 201.052C427.773 201.347 427.374 201.513 426.957 201.513C426.541 201.513 426.141 201.347 425.847 201.052C425.552 200.758 425.387 200.358 425.387 199.941C425.387 199.524 425.552 199.124 425.847 198.829C426.141 198.534 426.541 198.369 426.957 198.369C427.374 198.369 427.773 198.534 428.068 198.829C428.363 199.124 428.528 199.524 428.528 199.941ZM386.334 192.631C386.334 193.295 385.793 193.836 385.13 193.836C384.467 193.836 383.926 193.295 383.926 192.631C383.926 191.967 384.467 191.426 385.13 191.426C385.793 191.417 386.334 191.959 386.334 192.631ZM491.828 158.257C491.828 158.868 491.339 159.357 490.729 159.357C490.118 159.357 489.629 158.868 489.629 158.257C489.629 157.645 490.118 157.156 490.729 157.156C491.339 157.156 491.828 157.645 491.828 158.257Z" fill="white"/>
  <path opacity="0.6" d="M560.005 65.3777C563.347 65.3777 566.47 66.2947 569.149 67.8929C569.786 58.5657 577.542 51.2035 587.018 51.2035C589.33 51.2035 591.537 51.6489 593.561 52.4437C596.144 43.7977 604.145 37.4922 613.62 37.4922C625.19 37.4922 634.56 46.8805 634.56 58.4522C634.56 58.7491 634.551 59.0461 634.534 59.3343H634.56C646.121 59.3343 655.5 68.7226 655.5 80.2943C655.5 91.8747 646.121 101.254 634.56 101.254C633.836 101.254 633.121 101.219 632.423 101.149H561.951C561.305 101.219 560.659 101.254 559.996 101.254C550.102 101.254 542.075 93.2196 542.075 83.316C542.084 73.4124 550.111 65.3777 560.005 65.3777Z" fill="url(#paint27_linear_187_6922)"/>
  <path opacity="0.3" d="M470.914 89.1237C469.004 89.1237 467.206 89.6477 465.679 90.5647C465.313 85.2199 460.872 81.0017 455.445 81.0017C454.276 81.0017 453.15 81.2113 452.103 81.5781C450.594 76.6875 446.031 73.1243 440.647 73.1243C440.246 73.1243 439.845 73.1505 439.452 73.1854C434.418 73.4998 430.23 76.9145 428.773 81.5519C427.717 81.1851 426.591 80.9755 425.414 80.9755C419.987 80.9755 415.546 85.1937 415.179 90.5385C413.597 89.5927 411.787 89.0946 409.944 89.0975C404.273 89.0975 399.684 93.7 399.684 99.3679C399.684 105.045 404.282 109.638 409.944 109.638C410.319 109.638 410.695 109.612 411.061 109.577H426.818C427.281 109.63 427.743 109.665 428.223 109.665C428.633 109.665 429.043 109.647 429.445 109.603H451.946C452.173 109.612 452.4 109.638 452.636 109.638C452.871 109.638 453.098 109.612 453.325 109.603H469.798C470.164 109.647 470.539 109.665 470.914 109.665C476.586 109.665 481.175 105.062 481.175 99.3941C481.175 93.7262 476.577 89.1237 470.914 89.1237Z" fill="url(#paint28_linear_187_6922)"/>
  <defs>
    <linearGradient id="paint0_linear_187_6922" x1="203.161" y1="27.1528" x2="507.914" y2="463.991" gradientUnits="userSpaceOnUse">
      <stop stop-color="#270036"/>
      <stop offset="0.594" stop-color="#4F008B"/>
      <stop offset="1" stop-color="#4C24B1"/>
    </linearGradient>
    <radialGradient id="paint1_radial_187_6922" cx="0" cy="0" r="1" gradientUnits="userSpaceOnUse" gradientTransform="translate(403.131 243.101) scale(180.299 180.471)">
      <stop stop-color="#3E82BF"/>
      <stop offset="1" stop-color="#3E82BF" stop-opacity="0"/>
    </radialGradient>
    <linearGradient id="paint2_linear_187_6922" x1="518.058" y1="44.1878" x2="500.794" y2="129.951" gradientUnits="userSpaceOnUse">
      <stop stop-color="#88CFDA"/>
      <stop offset="0.008" stop-color="#89CFD9"/>
      <stop offset="0.478" stop-color="#C8D9BB"/>
      <stop offset="0.822" stop-color="#F0DFA7"/>
      <stop offset="1" stop-color="#FFE1A0"/>
    </linearGradient>
    <linearGradient id="paint3_linear_187_6922" x1="222.265" y1="68.3751" x2="244.18" y2="68.3751" gradientUnits="userSpaceOnUse">
      <stop stop-color="#7633FF"/>
      <stop offset="0.159" stop-color="#7137FF"/>
      <stop offset="0.353" stop-color="#6243FF"/>
      <stop offset="0.568" stop-color="#4957FF"/>
      <stop offset="0.794" stop-color="#2672FF"/>
      <stop offset="1" stop-color="#0090FF"/>
    </linearGradient>
    <linearGradient id="paint4_linear_187_6922" x1="49.0685" y1="178.951" x2="65.5046" y2="178.951" gradientUnits="userSpaceOnUse">
      <stop stop-color="#7633FF"/>
      <stop offset="0.159" stop-color="#7137FF"/>
      <stop offset="0.353" stop-color="#6243FF"/>
      <stop offset="0.568" stop-color="#4957FF"/>
      <stop offset="0.794" stop-color="#2672FF"/>
      <stop offset="1" stop-color="#0090FF"/>
    </linearGradient>
    <linearGradient id="paint5_linear_187_6922" x1="600.994" y1="164.63" x2="269.918" y2="364.59" gradientUnits="userSpaceOnUse">
      <stop stop-color="#1DACFF"/>
      <stop offset="0.136" stop-color="#1CA9FB"/>
      <stop offset="0.274" stop-color="#1B9FEF"/>
      <stop offset="0.414" stop-color="#188EDA"/>
      <stop offset="0.555" stop-color="#1476BD"/>
      <stop offset="0.696" stop-color="#0F5898"/>
      <stop offset="0.839" stop-color="#08326B"/>
      <stop offset="0.979" stop-color="#010737"/>
      <stop offset="1" stop-color="#00002E"/>
    </linearGradient>
    <linearGradient id="paint6_linear_187_6922" x1="566.031" y1="167.089" x2="376.416" y2="281.352" gradientUnits="userSpaceOnUse">
      <stop stop-color="#1DACFF"/>
      <stop offset="0.136" stop-color="#1CA9FB"/>
      <stop offset="0.274" stop-color="#1B9FEF"/>
      <stop offset="0.414" stop-color="#188EDA"/>
      <stop offset="0.555" stop-color="#1476BD"/>
      <stop offset="0.696" stop-color="#0F5898"/>
      <stop offset="0.839" stop-color="#08326B"/>
      <stop offset="0.979" stop-color="#010737"/>
      <stop offset="1" stop-color="#00002E"/>
    </linearGradient>
    <linearGradient id="paint7_linear_187_6922" x1="9.21904" y1="446.658" x2="186.973" y2="446.658" gradientUnits="userSpaceOnUse">
      <stop stop-color="#88AEDA"/>
      <stop offset="0.042" stop-color="#8EADD4"/>
      <stop offset="0.496" stop-color="#CBA895"/>
      <stop offset="0.828" stop-color="#F1A56D"/>
      <stop offset="1" stop-color="#FFA45E"/>
    </linearGradient>
    <linearGradient id="paint8_linear_187_6922" x1="49.8492" y1="439.681" x2="183.436" y2="439.681" gradientUnits="userSpaceOnUse">
      <stop stop-color="#88CFDA"/>
      <stop offset="0.042" stop-color="#8ED0D4"/>
      <stop offset="0.496" stop-color="#CBD995"/>
      <stop offset="0.828" stop-color="#F1DF6D"/>
      <stop offset="1" stop-color="#FFE15E"/>
    </linearGradient>
    <linearGradient id="paint9_linear_187_6922" x1="318.923" y1="396.33" x2="158.817" y2="187.97" gradientUnits="userSpaceOnUse">
      <stop stop-color="#A1BAFF"/>
      <stop offset="0.488" stop-color="white"/>
    </linearGradient>
    <linearGradient id="paint10_linear_187_6922" x1="416.739" y1="309.474" x2="385.856" y2="259.135" gradientUnits="userSpaceOnUse">
      <stop stop-color="#3D00BA"/>
      <stop offset="0.745" stop-color="#CE00FF"/>
    </linearGradient>
    <linearGradient id="paint11_linear_187_6922" x1="195.916" y1="448.549" x2="297.936" y2="448.549" gradientUnits="userSpaceOnUse">
      <stop stop-color="#3D00BA"/>
      <stop offset="0.745" stop-color="#CE00FF"/>
    </linearGradient>
    <linearGradient id="paint12_linear_187_6922" x1="219.114" y1="351.204" x2="157.937" y2="327.157" gradientUnits="userSpaceOnUse">
      <stop stop-color="#3D00BA"/>
      <stop offset="0.745" stop-color="#CE00FF"/>
    </linearGradient>
    <linearGradient id="paint13_linear_187_6922" x1="209.396" y1="441.051" x2="167.23" y2="377.111" gradientUnits="userSpaceOnUse">
      <stop stop-color="#270036"/>
      <stop offset="0.438" stop-color="#4F008B"/>
      <stop offset="1" stop-color="#4C24B1"/>
    </linearGradient>
    <linearGradient id="paint14_linear_187_6922" x1="159.936" y1="388.575" x2="190.058" y2="441.236" gradientUnits="userSpaceOnUse">
      <stop stop-color="#7633FF"/>
      <stop offset="0.159" stop-color="#7137FF"/>
      <stop offset="0.353" stop-color="#6243FF"/>
      <stop offset="0.568" stop-color="#4957FF"/>
      <stop offset="0.794" stop-color="#2672FF"/>
      <stop offset="1" stop-color="#0090FF"/>
    </linearGradient>
    <linearGradient id="paint15_linear_187_6922" x1="269.951" y1="346.999" x2="139.056" y2="416.893" gradientUnits="userSpaceOnUse">
      <stop stop-color="#7633FF"/>
      <stop offset="0.132" stop-color="#6342FF"/>
      <stop offset="0.534" stop-color="#2E6CFF"/>
      <stop offset="0.835" stop-color="#0D86FF"/>
      <stop offset="1" stop-color="#0090FF"/>
    </linearGradient>
    <linearGradient id="paint16_linear_187_6922" x1="135.506" y1="389.838" x2="262.091" y2="389.838" gradientUnits="userSpaceOnUse">
      <stop stop-color="#3D00BA"/>
      <stop offset="0.745" stop-color="#CE00FF"/>
    </linearGradient>
    <linearGradient id="paint17_linear_187_6922" x1="289.162" y1="163.023" x2="367.476" y2="163.023" gradientUnits="userSpaceOnUse">
      <stop stop-color="#7633FF"/>
      <stop offset="0.159" stop-color="#7137FF"/>
      <stop offset="0.353" stop-color="#6243FF"/>
      <stop offset="0.568" stop-color="#4957FF"/>
      <stop offset="0.794" stop-color="#2672FF"/>
      <stop offset="1" stop-color="#0090FF"/>
    </linearGradient>
    <linearGradient id="paint18_linear_187_6922" x1="278.012" y1="288.292" x2="317.183" y2="160.856" gradientUnits="userSpaceOnUse">
      <stop stop-color="#7633FF"/>
      <stop offset="0.111" stop-color="#6640FF"/>
      <stop offset="0.524" stop-color="#2F6BFF"/>
      <stop offset="0.833" stop-color="#0D86FF"/>
      <stop offset="1" stop-color="#0090FF"/>
    </linearGradient>
    <linearGradient id="paint19_linear_187_6922" x1="289.673" y1="223.421" x2="313.644" y2="223.421" gradientUnits="userSpaceOnUse">
      <stop stop-color="#7700BB"/>
      <stop offset="1"/>
    </linearGradient>
    <linearGradient id="paint20_linear_187_6922" x1="285.542" y1="173.177" x2="308.455" y2="173.177" gradientUnits="userSpaceOnUse">
      <stop stop-color="#7633FF"/>
      <stop offset="0.159" stop-color="#7137FF"/>
      <stop offset="0.353" stop-color="#6243FF"/>
      <stop offset="0.568" stop-color="#4957FF"/>
      <stop offset="0.794" stop-color="#2672FF"/>
      <stop offset="1" stop-color="#0090FF"/>
    </linearGradient>
    <linearGradient id="paint21_linear_187_6922" x1="287.909" y1="246.49" x2="310.468" y2="246.49" gradientUnits="userSpaceOnUse">
      <stop stop-color="#7700BB"/>
      <stop offset="1"/>
    </linearGradient>
    <linearGradient id="paint22_linear_187_6922" x1="245.297" y1="353.793" x2="273.371" y2="353.793" gradientUnits="userSpaceOnUse">
      <stop stop-color="#270036"/>
      <stop offset="0.594" stop-color="#4F008B"/>
      <stop offset="1" stop-color="#4C24B1"/>
    </linearGradient>
    <linearGradient id="paint23_linear_187_6922" x1="300.191" y1="169.861" x2="330.605" y2="169.861" gradientUnits="userSpaceOnUse">
      <stop stop-color="#A1BAFF"/>
      <stop offset="0.488" stop-color="white"/>
    </linearGradient>
    <linearGradient id="paint24_linear_187_6922" x1="289.661" y1="223.376" x2="368.623" y2="223.376" gradientUnits="userSpaceOnUse">
      <stop stop-color="#7633FF"/>
      <stop offset="0.159" stop-color="#7137FF"/>
      <stop offset="0.353" stop-color="#6243FF"/>
      <stop offset="0.568" stop-color="#4957FF"/>
      <stop offset="0.794" stop-color="#2672FF"/>
      <stop offset="1" stop-color="#0090FF"/>
    </linearGradient>
    <linearGradient id="paint25_linear_187_6922" x1="370.251" y1="256.735" x2="400.582" y2="256.735" gradientUnits="userSpaceOnUse">
      <stop stop-color="#A1BAFF"/>
      <stop offset="0.488" stop-color="white"/>
    </linearGradient>
    <linearGradient id="paint26_linear_187_6922" x1="367.119" y1="134.498" x2="393.039" y2="134.498" gradientUnits="userSpaceOnUse">
      <stop stop-color="#A1BAFF"/>
      <stop offset="0.488" stop-color="white"/>
    </linearGradient>
    <linearGradient id="paint27_linear_187_6922" x1="542.086" y1="69.3723" x2="655.512" y2="69.3723" gradientUnits="userSpaceOnUse">
      <stop stop-color="#A1BAFF"/>
      <stop offset="0.089" stop-color="#ACC2FF"/>
      <stop offset="0.499" stop-color="#D9E3FF"/>
      <stop offset="0.816" stop-color="#F5F7FF"/>
      <stop offset="1" stop-color="white"/>
    </linearGradient>
    <linearGradient id="paint28_linear_187_6922" x1="399.668" y1="91.3979" x2="481.175" y2="91.3979" gradientUnits="userSpaceOnUse">
      <stop stop-color="#A1BAFF"/>
      <stop offset="0.089" stop-color="#ACC2FF"/>
      <stop offset="0.499" stop-color="#D9E3FF"/>
      <stop offset="0.816" stop-color="#F5F7FF"/>
      <stop offset="1" stop-color="white"/>
    </linearGradient>
  </defs>
</svg>