<svg xmlns="http://www.w3.org/2000/svg" width="31" height="30" viewBox="0 0 31 30" fill="none">
<rect x="0.5" width="30" height="30" rx="4" fill="#0BF4C8"/>
<path fill-rule="evenodd" clip-rule="evenodd" d="M7.18919 2C6.25621 2 5.5 2.75621 5.5 3.68919V25.3108C5.5 26.2438 6.25621 27 7.18919 27H23.4054C24.3384 27 25.0946 26.2438 25.0946 25.3108V3.68919C25.0946 2.75621 24.3384 2 23.4054 2H7.18919ZM9.98619 2.67562H7.18919C6.62927 2.67562 6.17561 3.12925 6.17561 3.68919V25.3108C6.17561 25.8707 6.62925 26.3244 7.18919 26.3244H23.4054C23.9653 26.3244 24.419 25.8707 24.419 25.3108V3.68919C24.419 3.12927 23.9653 2.67562 23.4054 2.67562H20.6084L20.1637 4.00965C20.0259 4.42347 19.6384 4.7027 19.2022 4.7027H11.3927C10.9565 4.7027 10.5691 4.42345 10.4312 4.00965L9.98619 2.67562ZM19.8963 2.67562H10.6987L11.0722 3.79591C11.1181 3.93401 11.2473 4.02685 11.3927 4.02685H19.2022C19.3476 4.02685 19.4767 3.934 19.5226 3.79591L19.8963 2.67562Z" fill="#292929"/>
<path fill-rule="evenodd" clip-rule="evenodd" d="M8.54053 9.43252C8.54053 8.87284 8.99416 8.41895 9.5541 8.41895H10.9053C11.4653 8.41895 11.9189 8.87282 11.9189 9.43252V10.7837C11.9189 11.3437 11.4653 11.7973 10.9053 11.7973H9.5541C8.99418 11.7973 8.54053 11.3437 8.54053 10.7837V9.43252ZM9.5541 9.09459C9.36746 9.09459 9.21617 9.24588 9.21617 9.43252V10.7837C9.21617 10.9704 9.36746 11.1217 9.5541 11.1217H10.9053C11.092 11.1217 11.2433 10.9704 11.2433 10.7837V9.43252C11.2433 9.24588 11.092 9.09459 10.9053 9.09459H9.5541Z" fill="#292929"/>
<path fill-rule="evenodd" clip-rule="evenodd" d="M8.54053 14.4999C8.54053 13.9402 8.99416 13.4863 9.5541 13.4863H10.9053C11.4653 13.4863 11.9189 13.9402 11.9189 14.4999V15.8511C11.9189 16.4111 11.4653 16.8647 10.9053 16.8647H9.5541C8.99418 16.8647 8.54053 16.4111 8.54053 15.8511V14.4999ZM9.5541 14.162C9.36746 14.162 9.21617 14.3133 9.21617 14.4999V15.8511C9.21617 16.0378 9.36746 16.1891 9.5541 16.1891H10.9053C11.092 16.1891 11.2433 16.0378 11.2433 15.8511V14.4999C11.2433 14.3133 11.092 14.162 10.9053 14.162H9.5541Z" fill="#292929"/>
<path fill-rule="evenodd" clip-rule="evenodd" d="M8.54053 19.5673C8.54053 19.0076 8.99416 18.5537 9.5541 18.5537H10.9053C11.4653 18.5537 11.9189 19.0076 11.9189 19.5673V20.9185C11.9189 21.4784 11.4653 21.9321 10.9053 21.9321H9.5541C8.99418 21.9321 8.54053 21.4785 8.54053 20.9185V19.5673ZM9.5541 19.2294C9.36746 19.2294 9.21617 19.3806 9.21617 19.5673V20.9185C9.21617 21.1052 9.36746 21.2565 9.5541 21.2565H10.9053C11.092 21.2565 11.2433 21.1052 11.2433 20.9185V19.5673C11.2433 19.3806 11.092 19.2294 10.9053 19.2294H9.5541Z" fill="#292929"/>
<path fill-rule="evenodd" clip-rule="evenodd" d="M13.2705 10.1082C13.2705 9.92156 13.4218 9.77051 13.6084 9.77051H22.0544C22.241 9.77051 22.3923 9.92156 22.3923 10.1082C22.3923 10.2949 22.241 10.4461 22.0544 10.4461H13.6084C13.4218 10.4461 13.2705 10.2949 13.2705 10.1082Z" fill="#292929"/>
<path fill-rule="evenodd" clip-rule="evenodd" d="M13.2705 15.1756C13.2705 14.9889 13.4218 14.8379 13.6084 14.8379H22.0544C22.241 14.8379 22.3923 14.9889 22.3923 15.1756C22.3923 15.3622 22.241 15.5135 22.0544 15.5135H13.6084C13.4218 15.5135 13.2705 15.3622 13.2705 15.1756Z" fill="#292929"/>
<path fill-rule="evenodd" clip-rule="evenodd" d="M13.2705 20.243C13.2705 20.0563 13.4218 19.9053 13.6084 19.9053H22.0544C22.241 19.9053 22.3923 20.0563 22.3923 20.243C22.3923 20.4296 22.241 20.5809 22.0544 20.5809H13.6084C13.4218 20.5809 13.2705 20.4296 13.2705 20.243Z" fill="#292929"/>
</svg>