<svg
    xmlns="http://www.w3.org/2000/svg"
    width="12px"
    height="14px"
    viewBox="0 0 12 14"
    fill="none"
  >
    <path
      d="M10.9749 0.3025C10.643 -0.0874998 10.1067 -0.0874998 9.77466 0.3025L5.61197 5.1825L1.44928 0.2925C1.11729 -0.0975 0.580989 -0.0975 0.248995 0.2925C-0.0829984 0.6825 -0.0829984 1.3125 0.248995 1.7025L4.41169 6.5925L0.248995 11.4825C-0.0829984 11.8725 -0.0829984 12.5025 0.248995 12.8925C0.580989 13.2825 1.11729 13.2825 1.44928 12.8925L5.61197 8.0025L9.77466 12.8925C10.1067 13.2825 10.643 13.2825 10.9749 12.8925C11.3069 12.5025 11.3069 11.8725 10.9749 11.4825L6.81225 6.5925L10.9749 1.7025C11.2984 1.3225 11.2984 0.6825 10.9749 0.3025Z"
      fill="#0B0B0B"
    />
  </svg>