<svg
    xmlns="http://www.w3.org/2000/svg"
    width="25px"
    height="25px"
    viewBox="0 0 25 25"
    fill="none"
  >
    <rect width="25" height="25" rx="3" fill="#F4510B" />
    <path
      d="M7.29151 21.875C6.71859 21.875 6.22831 21.6712 5.82067 21.2635C5.41304 20.8559 5.20887 20.3653 5.20817 19.7917V6.25C4.91304 6.25 4.66581 6.15 4.46651 5.95C4.2672 5.75 4.1672 5.50278 4.16651 5.20833C4.16581 4.91389 4.26581 4.66667 4.46651 4.46667C4.6672 4.26667 4.91442 4.16667 5.20817 4.16667H9.37484C9.37484 3.87153 9.47484 3.62431 9.67484 3.425C9.87484 3.22569 10.1221 3.12569 10.4165 3.125H14.5832C14.8783 3.125 15.1259 3.225 15.3259 3.425C15.5259 3.625 15.6255 3.87222 15.6248 4.16667H19.7915C20.0866 4.16667 20.3342 4.26667 20.5342 4.46667C20.7342 4.66667 20.8339 4.91389 20.8332 5.20833C20.8325 5.50278 20.7325 5.75035 20.5332 5.95104C20.3339 6.15174 20.0866 6.25139 19.7915 6.25V19.7917C19.7915 20.3646 19.5877 20.8552 19.1801 21.2635C18.7724 21.6719 18.2818 21.8757 17.7082 21.875H7.29151ZM17.7082 6.25H7.29151V19.7917H17.7082V6.25ZM10.4165 17.7083C10.7116 17.7083 10.9592 17.6083 11.1592 17.4083C11.3592 17.2083 11.4589 16.9611 11.4582 16.6667V9.375C11.4582 9.07986 11.3582 8.83264 11.1582 8.63333C10.9582 8.43403 10.711 8.33403 10.4165 8.33333C10.1221 8.33264 9.87484 8.43264 9.67484 8.63333C9.47484 8.83403 9.37484 9.08125 9.37484 9.375V16.6667C9.37484 16.9618 9.47484 17.2094 9.67484 17.4094C9.87484 17.6094 10.1221 17.709 10.4165 17.7083ZM14.5832 17.7083C14.8783 17.7083 15.1259 17.6083 15.3259 17.4083C15.5259 17.2083 15.6255 16.9611 15.6248 16.6667V9.375C15.6248 9.07986 15.5248 8.83264 15.3248 8.63333C15.1248 8.43403 14.8776 8.33403 14.5832 8.33333C14.2887 8.33264 14.0415 8.43264 13.8415 8.63333C13.6415 8.83403 13.5415 9.08125 13.5415 9.375V16.6667C13.5415 16.9618 13.6415 17.2094 13.8415 17.4094C14.0415 17.6094 14.2887 17.709 14.5832 17.7083Z"
      fill="#00252A"
    />
</svg>