<svg
    xmlns="http://www.w3.org/2000/svg"
    width="25px"
    height="25px"
    viewBox="0 0 25 25"
    fill="none"
  >
    <rect width="25" height="25" rx="3" fill="#0BB2F4" />
    <path
      d="M22.4418 11.5051C22.7585 11.9489 22.9168 12.1718 22.9168 12.4999C22.9168 12.8291 22.7585 13.051 22.4418 13.4947C21.0189 15.4905 17.3845 19.7916 12.5002 19.7916C7.61475 19.7916 3.98141 15.4895 2.5585 13.4947C2.24183 13.051 2.0835 12.828 2.0835 12.4999C2.0835 12.1708 2.24183 11.9489 2.5585 11.5051C3.98141 9.5093 7.61579 5.20825 12.5002 5.20825C17.3856 5.20825 21.0189 9.51034 22.4418 11.5051Z"
      stroke="#00252A"
      strokeWidth="1.5"
      strokeLinecap="round"
      strokeLinejoin="round"
    />
    <path
      d="M15.625 12.5C15.625 11.6712 15.2958 10.8763 14.7097 10.2903C14.1237 9.70424 13.3288 9.375 12.5 9.375C11.6712 9.375 10.8763 9.70424 10.2903 10.2903C9.70424 10.8763 9.375 11.6712 9.375 12.5C9.375 13.3288 9.70424 14.1237 10.2903 14.7097C10.8763 15.2958 11.6712 15.625 12.5 15.625C13.3288 15.625 14.1237 15.2958 14.7097 14.7097C15.2958 14.1237 15.625 13.3288 15.625 12.5Z"
      stroke="#00252A"
      strokeWidth="1.5"
      strokeLinecap="round"
      strokeLinejoin="round"
    />
</svg>