<svg
    xmlns="http://www.w3.org/2000/svg"
    width="16"
    height="16"
    viewBox="0 0 16 16"
    fill="none"
  >
    <path
      d="M9.45038 10.9161H8.983V7.18573C8.983 7.02111 8.91761 6.86324 8.80121 6.74684C8.68481 6.63043 8.52693 6.56504 8.36231 6.56504H6.5499C6.38528 6.56504 6.22741 6.63043 6.11101 6.74684C5.9946 6.86324 5.92921 7.02111 5.92921 7.18573C5.92921 7.35035 5.9946 7.50822 6.11101 7.62462C6.22741 7.74103 6.38528 7.80642 6.5499 7.80642H7.74162V10.9161H6.5499C6.38528 10.9161 6.22741 10.9815 6.11101 11.0979C5.9946 11.2143 5.92921 11.3721 5.92921 11.5368C5.92921 11.7014 5.9946 11.8593 6.11101 11.9757C6.22741 12.0921 6.38528 12.1575 6.5499 12.1575H9.45038C9.615 12.1575 9.77288 12.0921 9.88928 11.9757C10.0057 11.8593 10.0711 11.7014 10.0711 11.5368C10.0711 11.3721 10.0057 11.2143 9.88928 11.0979C9.77288 10.9815 9.615 10.9161 9.45038 10.9161ZM7.99983 5.21504C8.18397 5.21504 8.36398 5.16044 8.51709 5.05813C8.67019 4.95583 8.78953 4.81042 8.85999 4.6403C8.93046 4.47017 8.9489 4.28297 8.91298 4.10237C8.87705 3.92177 8.78838 3.75587 8.65817 3.62567C8.52796 3.49546 8.36207 3.40679 8.18147 3.37086C8.00086 3.33494 7.81366 3.35338 7.64354 3.42384C7.47342 3.49431 7.32801 3.61364 7.2257 3.76675C7.1234 3.91986 7.0688 4.09987 7.0688 4.28401C7.0688 4.53093 7.16689 4.76774 7.34149 4.94235C7.51609 5.11695 7.75291 5.21504 7.99983 5.21504ZM7.99983 0.241455C5.94282 0.243755 3.97072 1.06192 2.5162 2.51644C1.06167 3.97097 0.243511 5.94307 0.241211 8.00008C0.244657 10.0567 1.06319 12.0282 2.51746 13.4824C3.97174 14.9367 5.94318 15.7552 7.99983 15.7587C10.0575 15.7587 12.031 14.9413 13.486 13.4862C14.941 12.0312 15.7585 10.0578 15.7585 8.00008C15.7585 5.94236 14.941 3.96893 13.486 2.5139C12.031 1.05888 10.0575 0.241455 7.99983 0.241455ZM12.5495 12.659C11.4729 13.7079 10.0666 14.352 8.56913 14.4822C7.07169 14.6123 5.57534 14.2204 4.33396 13.3729C3.09257 12.5254 2.1826 11.2745 1.75843 9.83254C1.33426 8.39055 1.42201 6.84622 2.00679 5.46156C2.59157 4.07689 3.63738 2.93717 4.96677 2.23576C6.29616 1.53435 7.82728 1.31444 9.30034 1.61335C10.7734 1.91225 12.0977 2.71157 13.0486 3.87567C13.9994 5.03978 14.5183 6.49699 14.5171 8.00008C14.5192 8.86904 14.3461 9.7295 14.008 10.53C13.6699 11.3305 13.1739 12.0546 12.5495 12.659Z"
      fill="#0BB2F4"
    />
</svg>