  <svg
    xmlns="http://www.w3.org/2000/svg"
    width="10"
    height="14"
    viewBox="0 0 10 14"
    fill="none"
  >
    <path
      fill-rule="evenodd"
      clip-rule="evenodd"
      d="M2 2C0.895431 2 0 2.89543 0 4V10C0 11.1046 0.89543 12 2 12H8C9.10457 12 10 11.1046 10 10V4C10 2.89543 9.10457 2 8 2H2ZM4.72221 4.95508C4.72221 4.7825 4.58145 4.64014 4.41071 4.66555C3.33092 4.82592 2.5 5.80797 2.5 6.99549V9.01758C2.5 9.19016 2.63992 9.33008 2.8125 9.33008H4.40971C4.58229 9.33008 4.72221 9.19016 4.72221 9.01758V7.6021C4.72221 7.42952 4.58229 7.2896 4.40971 7.2896H3.61115V6.95345C3.61115 6.41687 3.95035 5.96422 4.41422 5.82285C4.57924 5.77249 4.72221 5.63715 4.72221 5.4645V4.95508ZM7.5 4.95508C7.5 4.7825 7.35924 4.64014 7.18849 4.66555C6.1087 4.82592 5.27779 5.80797 5.27779 6.99549V9.01758C5.27779 9.19016 5.41771 9.33008 5.59029 9.33008H7.1875C7.36008 9.33008 7.5 9.19016 7.5 9.01758V7.6021C7.5 7.42952 7.36008 7.2896 7.1875 7.2896H6.38885V6.95345C6.38885 6.41695 6.72813 5.96422 7.19193 5.82285C7.35703 5.77249 7.5 5.63715 7.5 5.4645V4.95508Z"
      fill="#8B919E"
    />
  </svg>