 <svg
    xmlns="http://www.w3.org/2000/svg"
    width="15px"
    height="17px"
    viewBox="0 0 15 17"
    fill="none"
  >
    <g clipPath="url(#clip0_187_3830)">
      <path
        d="M10.125 4.125H4.875M10.125 7.625H4.875M10.125 11.125H6.625M1.375 0.625H13.625V16.375L12.722 15.6015C12.4048 15.3297 12.0009 15.1803 11.5832 15.1803C11.1655 15.1803 10.7615 15.3297 10.4444 15.6015L9.54138 16.375L8.63925 15.6015C8.32202 15.3294 7.91791 15.1799 7.5 15.1799C7.08209 15.1799 6.67798 15.3294 6.36075 15.6015L5.45863 16.375L4.55563 15.6015C4.23846 15.3297 3.83452 15.1803 3.41681 15.1803C2.9991 15.1803 2.59517 15.3297 2.278 15.6015L1.375 16.375V0.625Z"
        stroke="white"
        strokeLinecap="round"
        strokeLinejoin="round"
      />
    </g>
    <defs>
      <clipPath id="clip0_187_3830">
        <rect width="15" height="17" fill="white" />
      </clipPath>
    </defs>
  </svg>