 <svg
    xmlns="http://www.w3.org/2000/svg"
    width="16px"
    height="16px"
    viewBox="0 0 16 16"
    fill="none"
  >
    <path
      d="M15 8H10.8L9.4 10.625H6.6L5.2 8H1"
      stroke="white"
      strokeLinecap="round"
      strokeLinejoin="round"
    />
    <path
      d="M3.415 1.97125L1 8V13.25C1 13.7141 1.1475 14.1592 1.41005 14.4874C1.6726 14.8156 2.0287 15 2.4 15H13.6C13.9713 15 14.3274 14.8156 14.5899 14.4874C14.8525 14.1592 15 13.7141 15 13.25V8L12.585 1.97125C12.4691 1.67969 12.2904 1.43432 12.0691 1.26274C11.8477 1.09116 11.5925 1.00017 11.332 1H4.668C4.40754 1.00017 4.15228 1.09116 3.93093 1.26274C3.70958 1.43432 3.5309 1.67969 3.415 1.97125Z"
      stroke="white"
      strokeLinecap="round"
      strokeLinejoin="round"
    />
  </svg>