<svg xmlns="http://www.w3.org/2000/svg" width="31" height="30" viewBox="0 0 31 30" fill="none">
<rect x="0.5" width="30" height="30" rx="4" fill="#F2A0FF"/>
<path d="M7.46191 20.0977V20.1094C7.65554 20.1543 7.80078 20.3269 7.80078 20.5352V27.6611C7.80078 27.9036 7.60379 28.0986 7.3623 28.0986H4.12305C3.88118 28.0986 3.68555 27.9037 3.68555 27.6611V20.5352C3.68555 20.2926 3.88133 20.0977 4.12305 20.0977H7.46191ZM14.3906 15.7236C14.632 15.7236 14.828 15.9186 14.8281 16.1611V27.6611C14.8281 27.9036 14.6321 28.0986 14.3906 28.0986H11.1514C10.9099 28.0986 10.7139 27.9038 10.7139 27.6611V16.1611C10.714 15.9189 10.91 15.7236 11.1514 15.7236H14.3906ZM21.4189 12.7539C21.6605 12.7539 21.8566 12.9507 21.8564 13.1914V27.6611C21.8564 27.9035 21.6603 28.0985 21.4189 28.0986H18.1797C17.9382 28.0986 17.7412 27.9038 17.7412 27.6611V13.1914C17.7414 12.9508 17.938 12.7539 18.1797 12.7539H21.4189ZM28.4473 9.08301C28.6888 9.08304 28.8845 9.27889 28.8848 9.51953V27.6611C28.8848 27.9035 28.6889 28.0986 28.4473 28.0986H25.208C24.9661 28.0986 24.7695 27.9037 24.7695 27.6611V9.51953C24.7698 9.27865 24.9665 9.08301 25.208 9.08301H28.4473ZM25.6455 27.2236H28.0088V9.95898H25.6455V27.2236ZM18.6172 27.2236H20.9814V13.6309H18.6172V27.2236ZM11.5889 27.2236H13.9531V16.5986H11.5889V27.2236ZM4.56055 27.2236H6.9248V20.9727H4.56055V27.2236ZM26.5205 2.90039H26.5615C26.6757 2.90641 26.7847 2.95678 26.8623 3.04199H26.8613C26.9501 3.13883 26.991 3.27086 26.9717 3.40137L26.5869 6.04199C26.5552 6.26021 26.3679 6.41601 26.1543 6.41602C26.1327 6.41602 26.111 6.41478 26.0889 6.41113V6.41016C25.851 6.37408 25.6862 6.15461 25.7207 5.91602L25.9287 4.48145C19.8462 9.94761 12.5666 14.1865 4.2666 17.0762L4.26562 17.0752C4.21708 17.0926 4.16861 17.1006 4.12207 17.1006C3.94164 17.1004 3.77312 16.9875 3.70996 16.8066L3.68652 16.7402L3.69336 16.7344C3.65881 16.5279 3.77488 16.3213 3.97852 16.249L3.97949 16.248C12.1646 13.3988 19.3398 9.22262 25.332 3.84082L23.8975 3.91992C23.6577 3.9323 23.4498 3.74837 23.4365 3.50586C23.4234 3.26548 23.6079 3.05761 23.8496 3.04492L26.5146 2.90039L26.5205 2.89941V2.90039Z" fill="#292929" stroke="#F2A0FF" stroke-width="0.2"/>
</svg>