<svg
    xmlns="http://www.w3.org/2000/svg"
    width="16"
    height="16"
    viewBox="0 0 16 16"
    fill="none"
  >
    <g opacity="0.5">
        <path
        d="M10.9209 5.2642L10.5728 6.49219H4.05509L4.4031 5.2642H10.9209ZM7.74898 13L4.18932 8.67969L4.17938 7.71023H5.94429C6.38511 7.71023 6.75798 7.64228 7.0629 7.50639C7.36782 7.3705 7.59983 7.1733 7.75892 6.91477C7.91801 6.65294 7.99756 6.33475 7.99756 5.96023C7.99756 5.40341 7.83184 4.96094 7.5004 4.63281C7.16896 4.30469 6.65026 4.14062 5.94429 4.14062H4.05509L4.41801 2.81818H5.94429C6.76626 2.81818 7.44405 2.9491 7.97767 3.21094C8.51129 3.47277 8.90902 3.8357 9.17085 4.29972C9.43269 4.76373 9.56361 5.29901 9.56361 5.90554C9.56361 6.44579 9.45589 6.93466 9.24046 7.37216C9.02502 7.80966 8.68198 8.16596 8.21134 8.44105C7.74069 8.71615 7.12256 8.87689 6.35693 8.9233L6.31219 8.93324L9.56361 12.9155V13H7.74898ZM10.9258 2.81818L10.5728 4.05611L5.36262 4.02628L5.7156 2.81818H10.9258Z"
        fill="black"
      />
    </g>
</svg>