<svg
    xmlns="http://www.w3.org/2000/svg"
    width="14px"
    height="14px"
    viewBox="0 0 14 14"
    fill="none"
  >
    <path
      d="M3.26375 10.9375H4.13875V7H3.26375V10.9375ZM9.86125 10.9375H10.7362V2.625H9.86125V10.9375ZM6.5625 10.9375H7.4375V8.75H6.5625V10.9375ZM6.5625 7H7.4375V5.25H6.5625V7ZM1.414 14C1.01092 14 0.674625 13.8652 0.405125 13.5957C0.135625 13.3262 0.000583333 12.9897 0 12.586V1.414C0 1.01092 0.135041 0.674625 0.405125 0.405125C0.675208 0.135625 1.0115 0.000583333 1.414 0H12.5869C12.9894 0 13.3257 0.135041 13.5957 0.405125C13.8658 0.675208 14.0006 1.0115 14 1.414V12.5869C14 12.9894 13.8652 13.3257 13.5957 13.5957C13.3262 13.8658 12.9897 14.0006 12.586 14H1.414ZM1.414 13.125H12.5869C12.721 13.125 12.8444 13.069 12.957 12.957C13.0696 12.845 13.1256 12.7213 13.125 12.586V1.414C13.125 1.27925 13.069 1.15558 12.957 1.043C12.845 0.930416 12.7213 0.874417 12.586 0.875H1.414C1.27925 0.875 1.15558 0.931 1.043 1.043C0.930416 1.155 0.874417 1.27867 0.875 1.414V12.5869C0.875 12.721 0.931 12.8444 1.043 12.957C1.155 13.0696 1.27837 13.1256 1.41312 13.125"
      fill="white"
    />
</svg>