<svg xmlns="http://www.w3.org/2000/svg" width="30" height="30" viewBox="0 0 30 30" fill="none">
<path d="M26.5657 19.8626C25.7705 21.7432 24.5267 23.4004 22.9431 24.6892C21.3595 25.9781 19.4842 26.8594 17.4813 27.2561C15.4784 27.6528 13.4088 27.5528 11.4534 26.9648C9.49808 26.3769 7.71652 25.3189 6.26451 23.8834C4.81251 22.4479 3.73426 20.6785 3.12403 18.73C2.51381 16.7815 2.39019 14.7132 2.76399 12.7059C3.13778 10.6986 3.99761 8.81338 5.2683 7.21513C6.53898 5.61689 8.18184 4.35424 10.0532 3.5376" fill="#A36BFD"/>
<path d="M26.5657 19.8626C25.7705 21.7432 24.5267 23.4004 22.9431 24.6892C21.3595 25.9781 19.4842 26.8594 17.4813 27.2561C15.4784 27.6528 13.4088 27.5528 11.4534 26.9648C9.49808 26.3769 7.71652 25.3189 6.26451 23.8834C4.81251 22.4479 3.73426 20.6785 3.12403 18.73C2.51381 16.7815 2.39019 14.7132 2.76399 12.7059C3.13778 10.6986 3.99761 8.81338 5.2683 7.21513C6.53898 5.61689 8.18184 4.35424 10.0532 3.5376" stroke="white" strokeLinecap="round" strokeLinejoin="round"/>
<path d="M27.5 15C27.5 13.3585 27.1767 11.733 26.5485 10.2165C25.9203 8.69989 24.9996 7.3219 23.8388 6.16117C22.6781 5.00043 21.3001 4.07969 19.7835 3.45151C18.267 2.82332 16.6415 2.5 15 2.5V15H27.5Z" fill="#60CDAC" stroke="white" strokeLinecap="round" strokeLinejoin="round"/>
</svg>